<svg xmlns="http://www.w3.org/2000/svg" width="715.1016845703125" height="708.1928100585938" viewBox="-366.4676208496094 -330.2359619140625 715.1016845703125 708.1928100585938"><title>Neo4j Graph Visualization</title><desc>Created using Neo4j (http://www.neo4j.com/)</desc><g class="layer relationships"><g class="relationship" transform="translate(-7.357313419235194 348.95683711733) rotate(357.22270689098605)"><path class="outline" fill="#A5ABB6" stroke="none" d="M 25 0.5 L 45.89866877625332 0.5 L 45.89866877625332 -0.5 L 25 -0.5 Z M 90.89866877625332 0.5 L 111.79733755250663 0.5 L 111.79733755250663 3.5 L 118.79733755250663 0 L 111.79733755250663 -3.5 L 111.79733755250663 -0.5 L 90.89866877625332 -0.5 Z"/><text text-anchor="middle" pointer-events="none" font-size="8px" fill="#000000" x="68.39866877625332" y="3" font-family="sans-serif">ACTED_IN</text></g><g class="relationship" transform="translate(140.93717603563795 198.15745339355212) rotate(451.85808270524296)"><path class="outline" fill="#A5ABB6" stroke="none" d="M 25 0.5 L 45.953751812430426 0.5 L 45.953751812430426 -0.5 L 25 -0.5 Z M 90.95375181243043 0.5 L 111.90750362486085 0.5 L 111.90750362486085 3.5 L 118.90750362486085 0 L 111.90750362486085 -3.5 L 111.90750362486085 -0.5 L 90.95375181243043 -0.5 Z"/><text text-anchor="middle" pointer-events="none" font-size="8px" fill="#000000" x="68.45375181243043" y="3" transform="rotate(180 68.45375181243043 0)" font-family="sans-serif">ACTED_IN</text></g><g class="relationship" transform="translate(265.38084457152223 277.31529796254955) rotate(513.3926700756571)"><path class="outline" fill="#A5ABB6" stroke="none" d="M 25 0.5 L 46.20118720865061 0.5 L 46.20118720865061 -0.5 L 25 -0.5 Z M 91.20118720865061 0.5 L 112.40237441730122 0.5 L 112.40237441730122 3.5 L 119.40237441730122 0 L 112.40237441730122 -3.5 L 112.40237441730122 -0.5 L 91.20118720865061 -0.5 Z"/><text text-anchor="middle" pointer-events="none" font-size="8px" fill="#000000" x="68.70118720865061" y="3" transform="rotate(180 68.70118720865061 0)" font-family="sans-serif">ACTED_IN</text></g><g class="relationship" transform="translate(319.6340596493195 -19.821790474852794) rotate(254.3050821027598)"><path class="outline" fill="#A5ABB6" stroke="none" d="M 25 0.5 L 45.759862541880196 0.5 L 45.759862541880196 -0.5 L 25 -0.5 Z M 90.7598625418802 0.5 L 111.51972508376039 0.5 L 111.51972508376039 3.5 L 118.51972508376039 0 L 111.51972508376039 -3.5 L 111.51972508376039 -0.5 L 90.7598625418802 -0.5 Z"/><text text-anchor="middle" pointer-events="none" font-size="8px" fill="#000000" x="68.2598625418802" y="3" transform="rotate(180 68.2598625418802 0)" font-family="sans-serif">ACTED_IN</text></g><g class="relationship" transform="translate(287.0862400425481 -301.23594665940414) rotate(452.50886065611957)"><path class="outline" fill="#A5ABB6" stroke="none" d="M 25 0.5 L 45.69144741575285 0.5 L 45.69144741575285 -0.5 L 25 -0.5 Z M 90.69144741575285 0.5 L 111.3828948315057 0.5 L 111.3828948315057 3.5 L 118.3828948315057 0 L 111.3828948315057 -3.5 L 111.3828948315057 -0.5 L 90.69144741575285 -0.5 Z"/><text text-anchor="middle" pointer-events="none" font-size="8px" fill="#000000" x="68.19144741575285" y="3" transform="rotate(180 68.19144741575285 0)" font-family="sans-serif">ACTED_IN</text></g><g class="relationship" transform="translate(140.0743616466511 -126.45569651747792) rotate(347.37026644878495)"><path class="outline" fill="#A5ABB6" stroke="none" d="M 25 0.5 L 46.112603854990496 0.5 L 46.112603854990496 -0.5 L 25 -0.5 Z M 91.1126038549905 0.5 L 112.22520770998099 0.5 L 112.22520770998099 3.5 L 119.22520770998099 0 L 112.22520770998099 -3.5 L 112.22520770998099 -0.5 L 91.1126038549905 -0.5 Z"/><text text-anchor="middle" pointer-events="none" font-size="8px" fill="#000000" x="68.6126038549905" y="3" font-family="sans-serif">ACTED_IN</text></g><g class="relationship" transform="translate(166.27533023909604 -250.30855933985072) rotate(398.86980786688474)"><path class="outline" fill="#A5ABB6" stroke="none" d="M 25 0.5 L 47.55401730252835 0.5 L 47.55401730252835 -0.5 L 25 -0.5 Z M 92.55401730252835 0.5 L 115.1080346050567 0.5 L 115.1080346050567 3.5 L 122.1080346050567 0 L 115.1080346050567 -3.5 L 115.1080346050567 -0.5 L 92.55401730252835 -0.5 Z"/><text text-anchor="middle" pointer-events="none" font-size="8px" fill="#000000" x="70.05401730252835" y="3" font-family="sans-serif">ACTED_IN</text></g><g class="relationship" transform="translate(-140.61720444490194 -52.402114258166925) rotate(230.81952923088556)"><path class="outline" fill="#A5ABB6" stroke="none" d="M 25 0.5 L 57.39320009185464 0.5 L 57.39320009185464 -0.5 L 25 -0.5 Z M 102.39320009185464 0.5 L 134.78640018370928 0.5 L 134.78640018370928 3.5 L 141.78640018370928 0 L 134.78640018370928 -3.5 L 134.78640018370928 -0.5 L 102.39320009185464 -0.5 Z"/><text text-anchor="middle" pointer-events="none" font-size="8px" fill="#000000" x="79.89320009185464" y="3" transform="rotate(180 79.89320009185464 0)" font-family="sans-serif">ACTED_IN</text></g><g class="relationship" transform="translate(-140.61720444490194 -52.402114258166925) rotate(495.4548438831141)"><path class="outline" fill="#A5ABB6" stroke="none" d="M 25 0.5 L 72.87746115295194 0.5 L 72.87746115295194 -0.5 L 25 -0.5 Z M 117.87746115295194 0.5 L 165.75492230590388 0.5 L 165.75492230590388 3.5 L 172.75492230590388 0 L 165.75492230590388 -3.5 L 165.75492230590388 -0.5 L 117.87746115295194 -0.5 Z"/><text text-anchor="middle" pointer-events="none" font-size="8px" fill="#000000" x="95.37746115295194" y="3" transform="rotate(180 95.37746115295194 0)" font-family="sans-serif">ACTED_IN</text></g><g class="relationship" transform="translate(-140.61720444490194 -52.402114258166925) rotate(467.4320766224964)"><path class="outline" fill="#A5ABB6" stroke="none" d="M 25 0.5 L 43.70711178974017 0.5 L 43.70711178974017 -0.5 L 25 -0.5 Z M 88.70711178974017 0.5 L 107.41422357948034 0.5 L 107.41422357948034 3.5 L 114.41422357948034 0 L 107.41422357948034 -3.5 L 107.41422357948034 -0.5 L 88.70711178974017 -0.5 Z"/><text text-anchor="middle" pointer-events="none" font-size="8px" fill="#000000" x="66.20711178974017" y="3" transform="rotate(180 66.20711178974017 0)" font-family="sans-serif">ACTED_IN</text></g><g class="relationship" transform="translate(-337.4676348456644 -32.96014703446066) rotate(301.59509977704374)"><path class="outline" fill="#A5ABB6" stroke="none" d="M 25 0.5 L 61.30513337181553 0.5 L 61.30513337181553 -0.5 L 25 -0.5 Z M 106.30513337181553 0.5 L 142.61026674363106 0.5 L 142.61026674363106 3.5 L 149.61026674363106 0 L 142.61026674363106 -3.5 L 142.61026674363106 -0.5 L 106.30513337181553 -0.5 Z"/><text text-anchor="middle" pointer-events="none" font-size="8px" fill="#000000" x="83.80513337181553" y="3" font-family="sans-serif">ACTED_IN</text></g><g class="relationship" transform="translate(-337.4676348456644 -32.96014703446066) rotate(424.8853064333776)"><path class="outline" fill="#A5ABB6" stroke="none" d="M 25 0.5 L 39.86564446105737 0.5 L 39.86564446105737 -0.5 L 25 -0.5 Z M 84.86564446105737 0.5 L 99.73128892211474 0.5 L 99.73128892211474 3.5 L 106.73128892211474 0 L 99.73128892211474 -3.5 L 99.73128892211474 -0.5 L 84.86564446105737 -0.5 Z"/><text text-anchor="middle" pointer-events="none" font-size="8px" fill="#000000" x="62.36564446105737" y="3" font-family="sans-serif">ACTED_IN</text></g><g class="relationship" transform="translate(-337.4676348456644 -32.96014703446066) rotate(396.21538875187804)"><path class="outline" fill="#A5ABB6" stroke="none" d="M 25 0.5 L 70.1112421539988 0.5 L 70.1112421539988 -0.5 L 25 -0.5 Z M 115.1112421539988 0.5 L 160.2224843079976 0.5 L 160.2224843079976 3.5 L 167.2224843079976 0 L 160.2224843079976 -3.5 L 160.2224843079976 -0.5 L 115.1112421539988 -0.5 Z"/><text text-anchor="middle" pointer-events="none" font-size="8px" fill="#000000" x="92.6112421539988" y="3" font-family="sans-serif">ACTED_IN</text></g><g class="relationship" transform="translate(-239.92330010124735 -52.422326907846) rotate(267.31428065143274)"><path class="outline" fill="#A5ABB6" stroke="none" d="M 25 0.5 L 38.70402773488982 0.5 L 38.70402773488982 -0.5 L 25 -0.5 Z M 83.70402773488982 0.5 L 97.40805546977964 0.5 L 97.40805546977964 3.5 L 104.40805546977964 0 L 97.40805546977964 -3.5 L 97.40805546977964 -0.5 L 83.70402773488982 -0.5 Z"/><text text-anchor="middle" pointer-events="none" font-size="8px" fill="#000000" x="61.20402773488982" y="3" transform="rotate(180 61.20402773488982 0)" font-family="sans-serif">ACTED_IN</text></g><g class="relationship" transform="translate(-239.92330010124735 -52.422326907846) rotate(466.7036126437647)"><path class="outline" fill="#A5ABB6" stroke="none" d="M 25 0.5 L 46.425849277882065 0.5 L 46.425849277882065 -0.5 L 25 -0.5 Z M 91.42584927788207 0.5 L 112.85169855576413 0.5 L 112.85169855576413 3.5 L 119.85169855576413 0 L 112.85169855576413 -3.5 L 112.85169855576413 -0.5 L 91.42584927788207 -0.5 Z"/><text text-anchor="middle" pointer-events="none" font-size="8px" fill="#000000" x="68.92584927788207" y="3" transform="rotate(180 68.92584927788207 0)" font-family="sans-serif">ACTED_IN</text></g><g class="relationship" transform="translate(-239.92330010124735 -52.422326907846) rotate(426.6097220607841)"><path class="outline" fill="#A5ABB6" stroke="none" d="M 25 0.5 L 46.471310329275795 0.5 L 46.471310329275795 -0.5 L 25 -0.5 Z M 91.4713103292758 0.5 L 112.94262065855159 0.5 L 112.94262065855159 3.5 L 119.94262065855159 0 L 112.94262065855159 -3.5 L 112.94262065855159 -0.5 L 91.4713103292758 -0.5 Z"/><text text-anchor="middle" pointer-events="none" font-size="8px" fill="#000000" x="68.9713103292758" y="3" font-family="sans-serif">ACTED_IN</text></g><g class="relationship" transform="translate(-41.59516540940184 106.6901712043017) rotate(190.49513464873246)"><path class="outline" fill="#A5ABB6" stroke="none" d="M 25 0.5 L 45.591219410376794 0.5 L 45.591219410376794 -0.5 L 25 -0.5 Z M 90.5912194103768 0.5 L 111.18243882075359 0.5 L 111.18243882075359 3.5 L 118.18243882075359 0 L 111.18243882075359 -3.5 L 111.18243882075359 -0.5 L 90.5912194103768 -0.5 Z"/><text text-anchor="middle" pointer-events="none" font-size="8px" fill="#000000" x="68.0912194103768" y="3" transform="rotate(180 68.0912194103768 0)" font-family="sans-serif">ACTED_IN</text></g></g><g class="layer nodes"><g class="node" aria-label="graph-node71" style="touch-action: none;" transform="translate(-7.357313419235194,348.95683711733)"><circle class="outline" cx="0" cy="0" r="25" fill="#C990C0" stroke="#b261a5" stroke-width="2px"/><text class="caption" text-anchor="middle" pointer-events="none" x="0" y="0" font-size="10px" fill="#FFFFFF" font-family="sans-serif"> Tom</text><text class="caption" text-anchor="middle" pointer-events="none" x="0" y="10" font-size="10px" fill="#FFFFFF" font-family="sans-serif"> Hanks</text></g><g class="node" aria-label="graph-node105" style="touch-action: none;" transform="translate(136.27112244898007,341.98929111895205)"><circle class="outline" cx="0" cy="0" r="25" fill="#F79767" stroke="#f36924" stroke-width="2px"/><text class="caption" text-anchor="middle" pointer-events="none" x="0" y="0" font-size="10px" fill="#FFFFFF" font-family="sans-serif"> Cloud</text><text class="caption" text-anchor="middle" pointer-events="none" x="0" y="10" font-size="10px" fill="#FFFFFF" font-family="sans-serif"> Atlas</text></g><g class="node" aria-label="graph-node107" style="touch-action: none;" transform="translate(140.93717603563795,198.15745339355212)"><circle class="outline" cx="0" cy="0" r="25" fill="#C990C0" stroke="#b261a5" stroke-width="2px"/><text class="caption" text-anchor="middle" pointer-events="none" x="0" y="0" font-size="10px" fill="#FFFFFF" font-family="sans-serif"> Jim</text><text class="caption" text-anchor="middle" pointer-events="none" x="0" y="10" font-size="10px" fill="#FFFFFF" font-family="sans-serif"> Broad…</text></g><g class="node" aria-label="graph-node106" style="touch-action: none;" transform="translate(265.38084457152223,277.31529796254955)"><circle class="outline" cx="0" cy="0" r="25" fill="#C990C0" stroke="#b261a5" stroke-width="2px"/><text class="caption" text-anchor="middle" pointer-events="none" x="0" y="0" font-size="10px" fill="#FFFFFF" font-family="sans-serif"> Halle</text><text class="caption" text-anchor="middle" pointer-events="none" x="0" y="10" font-size="10px" fill="#FFFFFF" font-family="sans-serif"> Berry</text></g><g class="node" aria-label="graph-node119" style="touch-action: none;" transform="translate(319.6340596493195,-19.821790474852794)"><circle class="outline" cx="0" cy="0" r="25" fill="#C990C0" stroke="#b261a5" stroke-width="2px"/><text class="caption" text-anchor="middle" pointer-events="none" x="0" y="5" font-size="10px" fill="#FFFFFF" font-family="sans-serif"> John Hurt</text></g><g class="node" aria-label="graph-node116" style="touch-action: none;" transform="translate(280.8098133668836,-157.99048949427225)"><circle class="outline" cx="0" cy="0" r="25" fill="#F79767" stroke="#f36924" stroke-width="2px"/><text class="caption" text-anchor="middle" pointer-events="none" x="0" y="0" font-size="10px" fill="#FFFFFF" font-family="sans-serif"> V for</text><text class="caption" text-anchor="middle" pointer-events="none" x="0" y="10" font-size="10px" fill="#FFFFFF" font-family="sans-serif"> Vend…</text></g><g class="node" aria-label="graph-node118" style="touch-action: none;" transform="translate(287.0862400425481,-301.23594665940414)"><circle class="outline" cx="0" cy="0" r="25" fill="#C990C0" stroke="#b261a5" stroke-width="2px"/><text class="caption" text-anchor="middle" pointer-events="none" x="0" y="0" font-size="10px" fill="#FFFFFF" font-family="sans-serif"> Stephen</text><text class="caption" text-anchor="middle" pointer-events="none" x="0" y="10" font-size="10px" fill="#FFFFFF" font-family="sans-serif"> Rea</text></g><g class="node" aria-label="graph-node117" style="touch-action: none;" transform="translate(140.0743616466511,-126.45569651747792)"><circle class="outline" cx="0" cy="0" r="25" fill="#C990C0" stroke="#b261a5" stroke-width="2px"/><text class="caption" text-anchor="middle" pointer-events="none" x="0" y="0" font-size="10px" fill="#FFFFFF" font-family="sans-serif"> Natalie</text><text class="caption" text-anchor="middle" pointer-events="none" x="0" y="10" font-size="10px" fill="#FFFFFF" font-family="sans-serif"> Portm…</text></g><g class="node" aria-label="graph-node120" style="touch-action: none;" transform="translate(166.27533023909604,-250.30855933985072)"><circle class="outline" cx="0" cy="0" r="25" fill="#C990C0" stroke="#b261a5" stroke-width="2px"/><text class="caption" text-anchor="middle" pointer-events="none" x="0" y="0" font-size="10px" fill="#FFFFFF" font-family="sans-serif"> Ben</text><text class="caption" text-anchor="middle" pointer-events="none" x="0" y="10" font-size="10px" fill="#FFFFFF" font-family="sans-serif"> Miles</text></g><g class="node" aria-label="graph-node3" style="touch-action: none;" transform="translate(-140.61720444490194,-52.402114258166925)"><circle class="outline" cx="0" cy="0" r="25" fill="#C990C0" stroke="#b261a5" stroke-width="2px"/><text class="caption" text-anchor="middle" pointer-events="none" x="0" y="0" font-size="10px" fill="#FFFFFF" font-family="sans-serif"> Laurence</text><text class="caption" text-anchor="middle" pointer-events="none" x="0" y="10" font-size="10px" fill="#FFFFFF" font-family="sans-serif"> Fishb…</text></g><g class="node" aria-label="graph-node10" style="touch-action: none;" transform="translate(-245.98703567344336,-181.68823862234268)"><circle class="outline" cx="0" cy="0" r="25" fill="#F79767" stroke="#f36924" stroke-width="2px"/><text class="caption" text-anchor="middle" pointer-events="none" x="0" y="-5" font-size="10px" fill="#FFFFFF" font-family="sans-serif"> The</text><text class="caption" text-anchor="middle" pointer-events="none" x="0" y="5" font-size="10px" fill="#FFFFFF" font-family="sans-serif"> Matrix</text><text class="caption" text-anchor="middle" pointer-events="none" x="0" y="15" font-size="10px" fill="#FFFFFF" font-family="sans-serif"> Rev…</text></g><g class="node" aria-label="graph-node2" style="touch-action: none;" transform="translate(-337.4676348456644,-32.96014703446066)"><circle class="outline" cx="0" cy="0" r="25" fill="#C990C0" stroke="#b261a5" stroke-width="2px"/><text class="caption" text-anchor="middle" pointer-events="none" x="0" y="5" font-size="10px" fill="#FFFFFF" font-family="sans-serif"> Carrie-A…</text></g><g class="node" aria-label="graph-node1" style="touch-action: none;" transform="translate(-239.92330010124735,-52.422326907846)"><circle class="outline" cx="0" cy="0" r="25" fill="#C990C0" stroke="#b261a5" stroke-width="2px"/><text class="caption" text-anchor="middle" pointer-events="none" x="0" y="0" font-size="10px" fill="#FFFFFF" font-family="sans-serif"> Keanu</text><text class="caption" text-anchor="middle" pointer-events="none" x="0" y="10" font-size="10px" fill="#FFFFFF" font-family="sans-serif"> Reeves</text></g><g class="node" aria-label="graph-node9" style="touch-action: none;" transform="translate(-281.5567074640672,86.31726356960733)"><circle class="outline" cx="0" cy="0" r="25" fill="#F79767" stroke="#f36924" stroke-width="2px"/><text class="caption" text-anchor="middle" pointer-events="none" x="0" y="-5" font-size="10px" fill="#FFFFFF" font-family="sans-serif"> The</text><text class="caption" text-anchor="middle" pointer-events="none" x="0" y="5" font-size="10px" fill="#FFFFFF" font-family="sans-serif"> Matrix</text><text class="caption" text-anchor="middle" pointer-events="none" x="0" y="15" font-size="10px" fill="#FFFFFF" font-family="sans-serif"> Rel…</text></g><g class="node" aria-label="graph-node8" style="touch-action: none;" transform="translate(-41.59516540940184,106.6901712043017)"><circle class="outline" cx="0" cy="0" r="25" fill="#C990C0" stroke="#b261a5" stroke-width="2px"/><text class="caption" text-anchor="middle" pointer-events="none" x="0" y="0" font-size="10px" fill="#FFFFFF" font-family="sans-serif"> Emil</text><text class="caption" text-anchor="middle" pointer-events="none" x="0" y="10" font-size="10px" fill="#FFFFFF" font-family="sans-serif"> Eifrem</text></g><g class="node" aria-label="graph-node0" style="touch-action: none;" transform="translate(-182.38221626669102,80.60919925987616)"><circle class="outline" cx="0" cy="0" r="25" fill="#F79767" stroke="#f36924" stroke-width="2px"/><text class="caption" text-anchor="middle" pointer-events="none" x="0" y="0" font-size="10px" fill="#FFFFFF" font-family="sans-serif"> The</text><text class="caption" text-anchor="middle" pointer-events="none" x="0" y="10" font-size="10px" fill="#FFFFFF" font-family="sans-serif"> Matrix</text></g></g></svg>