<svg xmlns="http://www.w3.org/2000/svg" width="347.4107666015625" height="350.64447021484375" viewBox="-163.2515869140625 -146.00521850585938 347.4107666015625 350.64447021484375"><title>Neo4j Graph Visualization</title><desc>Created using Neo4j (http://www.neo4j.com/)</desc><g class="layer relationships"><g class="relationship" transform="translate(-20.633130856984415 175.6392682734059) rotate(283.8361216020659)"><path class="outline" fill="#A5ABB6" stroke="none" d="M 25 0.5 L 48.83227200127921 0.5 L 48.83227200127921 -0.5 L 25 -0.5 Z M 93.83227200127921 0.5 L 117.66454400255842 0.5 L 117.66454400255842 3.5 L 124.66454400255842 0 L 117.66454400255842 -3.5 L 117.66454400255842 -0.5 L 93.83227200127921 -0.5 Z"/><text text-anchor="middle" pointer-events="none" font-size="8px" fill="#000000" x="71.33227200127921" y="3" font-family="sans-serif">ACTED_IN</text></g><g class="relationship" transform="translate(85.64565572426372 162.05567604018546) rotate(241.8507834406563)"><path class="outline" fill="#A5ABB6" stroke="none" d="M 25 0.5 L 47.70509380054392 0.5 L 47.70509380054392 -0.5 L 25 -0.5 Z M 94.70509380054392 0.5 L 117.41018760108784 0.5 L 117.41018760108784 3.5 L 124.41018760108784 0 L 117.41018760108784 -3.5 L 117.41018760108784 -0.5 L 94.70509380054392 -0.5 Z"/><text text-anchor="middle" pointer-events="none" font-size="8px" fill="#000000" x="71.20509380054392" y="3" transform="rotate(180 71.20509380054392 0)" font-family="sans-serif">DIRECTED</text></g><g class="relationship" transform="translate(155.15918022252515 82.37854199451563) rotate(200.39831697959272)"><path class="outline" fill="#A5ABB6" stroke="none" d="M 25 0.5 L 48.683584152149635 0.5 L 48.683584152149635 -0.5 L 25 -0.5 Z M 93.68358415214963 0.5 L 117.36716830429927 0.5 L 117.36716830429927 3.5 L 124.36716830429927 0 L 117.36716830429927 -3.5 L 117.36716830429927 -0.5 L 93.68358415214963 -0.5 Z"/><text text-anchor="middle" pointer-events="none" font-size="8px" fill="#000000" x="71.18358415214963" y="3" transform="rotate(180 71.18358415214963 0)" font-family="sans-serif">ACTED_IN</text></g><g class="relationship" transform="translate(155.034934814313 -22.321960468147708) rotate(519.3772852432267)"><path class="outline" fill="#A5ABB6" stroke="none" d="M 25 0.5 L 48.72670967646228 0.5 L 48.72670967646228 -0.5 L 25 -0.5 Z M 93.72670967646228 0.5 L 117.45341935292456 0.5 L 117.45341935292456 3.5 L 124.45341935292456 0 L 117.45341935292456 -3.5 L 117.45341935292456 -0.5 L 93.72670967646228 -0.5 Z"/><text text-anchor="middle" pointer-events="none" font-size="8px" fill="#000000" x="71.22670967646228" y="3" transform="rotate(180 71.22670967646228 0)" font-family="sans-serif">ACTED_IN</text></g><g class="relationship" transform="translate(87.58245239635669 -100.58522421381537) rotate(478.95425308543565)"><path class="outline" fill="#A5ABB6" stroke="none" d="M 25 0.5 L 48.80096228348745 0.5 L 48.80096228348745 -0.5 L 25 -0.5 Z M 93.80096228348745 0.5 L 117.6019245669749 0.5 L 117.6019245669749 3.5 L 124.6019245669749 0 L 117.6019245669749 -3.5 L 117.6019245669749 -0.5 L 93.80096228348745 -0.5 Z"/><text text-anchor="middle" pointer-events="none" font-size="8px" fill="#000000" x="71.30096228348745" y="3" transform="rotate(180 71.30096228348745 0)" font-family="sans-serif">ACTED_IN</text></g><g class="relationship" transform="translate(-11.089354191399488 -117.00521991698363) rotate(439.8978563785158)"><path class="outline" fill="#A5ABB6" stroke="none" d="M 25 0.5 L 48.82131066526952 0.5 L 48.82131066526952 -0.5 L 25 -0.5 Z M 93.82131066526952 0.5 L 117.64262133053904 0.5 L 117.64262133053904 3.5 L 124.64262133053904 0 L 117.64262133053904 -3.5 L 117.64262133053904 -0.5 L 93.82131066526952 -0.5 Z"/><text text-anchor="middle" pointer-events="none" font-size="8px" fill="#000000" x="71.32131066526952" y="3" font-family="sans-serif">ACTED_IN</text></g><g class="relationship" transform="translate(-97.7040867885135 -67.61610102120389) rotate(400.9489507275114)"><path class="outline" fill="#A5ABB6" stroke="none" d="M 25 0.5 L 48.714355413310855 0.5 L 48.714355413310855 -0.5 L 25 -0.5 Z M 93.71435541331086 0.5 L 117.42871082662171 0.5 L 117.42871082662171 3.5 L 124.42871082662171 0 L 117.42871082662171 -3.5 L 117.42871082662171 -0.5 L 93.71435541331086 -0.5 Z"/><text text-anchor="middle" pointer-events="none" font-size="8px" fill="#000000" x="71.21435541331086" y="3" font-family="sans-serif">ACTED_IN</text></g><g class="relationship" transform="translate(-134.2515891217219 25.342903356821697) rotate(361.9069288988748)"><path class="outline" fill="#A5ABB6" stroke="none" d="M 25 0.5 L 53.74643632058141 0.5 L 53.74643632058141 -0.5 L 25 -0.5 Z M 88.74643632058141 0.5 L 117.49287264116282 0.5 L 117.49287264116282 3.5 L 124.49287264116282 0 L 117.49287264116282 -3.5 L 117.49287264116282 -0.5 L 88.74643632058141 -0.5 Z"/><text text-anchor="middle" pointer-events="none" font-size="8px" fill="#000000" x="71.24643632058141" y="3" font-family="sans-serif">WROTE</text></g><g class="relationship" transform="translate(-103.94047016276173 120.6333032203085) rotate(322.82600361646575)"><path class="outline" fill="#A5ABB6" stroke="none" d="M 25 0.5 L 53.73539894463974 0.5 L 53.73539894463974 -0.5 L 25 -0.5 Z M 88.73539894463974 0.5 L 117.47079788927948 0.5 L 117.47079788927948 3.5 L 124.47079788927948 0 L 117.47079788927948 -3.5 L 117.47079788927948 -0.5 L 88.73539894463974 -0.5 Z"/><text text-anchor="middle" pointer-events="none" font-size="8px" fill="#000000" x="71.23539894463974" y="3" font-family="sans-serif">WROTE</text></g></g><g class="layer nodes"><g class="node" aria-label="graph-node184" style="touch-action: none;" transform="translate(-20.633130856984415,175.6392682734059)"><circle class="outline" cx="0" cy="0" r="25" fill="#C990C0" stroke="#b261a5" stroke-width="2px"/><text class="caption" text-anchor="middle" pointer-events="none" x="0" y="0" font-size="10px" fill="#FFFFFF" font-family="sans-serif"> Hugo</text><text class="caption" text-anchor="middle" pointer-events="none" x="0" y="10" font-size="10px" fill="#FFFFFF" font-family="sans-serif"> Weavi…</text></g><g class="node" aria-label="graph-node162" style="touch-action: none;" transform="translate(15.158494233252812,30.317434728361317)"><circle class="outline" cx="0" cy="0" r="25" fill="#F79767" stroke="#f36924" stroke-width="2px"/><text class="caption" text-anchor="middle" pointer-events="none" x="0" y="-5" font-size="10px" fill="#FFFFFF" font-family="sans-serif"> Captain</text><text class="caption" text-anchor="middle" pointer-events="none" x="0" y="5" font-size="10px" fill="#FFFFFF" font-family="sans-serif"> America:</text><text class="caption" text-anchor="middle" pointer-events="none" x="0" y="15" font-size="10px" fill="#FFFFFF" font-family="sans-serif"> Th</text></g><g class="node" aria-label="graph-node168" style="touch-action: none;" transform="translate(85.64565572426372,162.05567604018546)"><circle class="outline" cx="0" cy="0" r="25" fill="#C990C0" stroke="#b261a5" stroke-width="2px"/><text class="caption" text-anchor="middle" pointer-events="none" x="0" y="0" font-size="10px" fill="#FFFFFF" font-family="sans-serif"> Joe</text><text class="caption" text-anchor="middle" pointer-events="none" x="0" y="10" font-size="10px" fill="#FFFFFF" font-family="sans-serif"> Johns…</text></g><g class="node" aria-label="graph-node165" style="touch-action: none;" transform="translate(155.15918022252515,82.37854199451563)"><circle class="outline" cx="0" cy="0" r="25" fill="#C990C0" stroke="#b261a5" stroke-width="2px"/><text class="caption" text-anchor="middle" pointer-events="none" x="0" y="5" font-size="10px" fill="#FFFFFF" font-family="sans-serif"> Sebasti…</text></g><g class="node" aria-label="graph-node166" style="touch-action: none;" transform="translate(155.034934814313,-22.321960468147708)"><circle class="outline" cx="0" cy="0" r="25" fill="#C990C0" stroke="#b261a5" stroke-width="2px"/><text class="caption" text-anchor="middle" pointer-events="none" x="0" y="-5" font-size="10px" fill="#FFFFFF" font-family="sans-serif"> Tommy</text><text class="caption" text-anchor="middle" pointer-events="none" x="0" y="5" font-size="10px" fill="#FFFFFF" font-family="sans-serif"> Lee</text><text class="caption" text-anchor="middle" pointer-events="none" x="0" y="15" font-size="10px" fill="#FFFFFF" font-family="sans-serif"> Jon…</text></g><g class="node" aria-label="graph-node164" style="touch-action: none;" transform="translate(87.58245239635669,-100.58522421381537)"><circle class="outline" cx="0" cy="0" r="25" fill="#C990C0" stroke="#b261a5" stroke-width="2px"/><text class="caption" text-anchor="middle" pointer-events="none" x="0" y="0" font-size="10px" fill="#FFFFFF" font-family="sans-serif"> Hayley</text><text class="caption" text-anchor="middle" pointer-events="none" x="0" y="10" font-size="10px" fill="#FFFFFF" font-family="sans-serif"> Atwell</text></g><g class="node" aria-label="graph-node163" style="touch-action: none;" transform="translate(-11.089354191399488,-117.00521991698363)"><circle class="outline" cx="0" cy="0" r="25" fill="#C990C0" stroke="#b261a5" stroke-width="2px"/><text class="caption" text-anchor="middle" pointer-events="none" x="0" y="0" font-size="10px" fill="#FFFFFF" font-family="sans-serif"> Chris</text><text class="caption" text-anchor="middle" pointer-events="none" x="0" y="10" font-size="10px" fill="#FFFFFF" font-family="sans-serif"> Evans</text></g><g class="node" aria-label="graph-node167" style="touch-action: none;" transform="translate(-97.7040867885135,-67.61610102120389)"><circle class="outline" cx="0" cy="0" r="25" fill="#C990C0" stroke="#b261a5" stroke-width="2px"/><text class="caption" text-anchor="middle" pointer-events="none" x="0" y="0" font-size="10px" fill="#FFFFFF" font-family="sans-serif"> Stanley</text><text class="caption" text-anchor="middle" pointer-events="none" x="0" y="10" font-size="10px" fill="#FFFFFF" font-family="sans-serif"> Tucci </text></g><g class="node" aria-label="graph-node169" style="touch-action: none;" transform="translate(-134.2515891217219,25.342903356821697)"><circle class="outline" cx="0" cy="0" r="25" fill="#C990C0" stroke="#b261a5" stroke-width="2px"/><text class="caption" text-anchor="middle" pointer-events="none" x="0" y="5" font-size="10px" fill="#FFFFFF" font-family="sans-serif"> Christop…</text></g><g class="node" aria-label="graph-node170" style="touch-action: none;" transform="translate(-103.94047016276173,120.6333032203085)"><circle class="outline" cx="0" cy="0" r="25" fill="#C990C0" stroke="#b261a5" stroke-width="2px"/><text class="caption" text-anchor="middle" pointer-events="none" x="0" y="0" font-size="10px" fill="#FFFFFF" font-family="sans-serif"> Stephen</text><text class="caption" text-anchor="middle" pointer-events="none" x="0" y="10" font-size="10px" fill="#FFFFFF" font-family="sans-serif"> McFe…</text></g></g></svg>