<svg xmlns="http://www.w3.org/2000/svg" width="508.15887451171875" height="558.0979614257812" viewBox="-235.17352294921875 -292.2373046875 508.15887451171875 558.0979614257812"><title>Neo4j Graph Visualization</title><desc>Created using Neo4j (http://www.neo4j.com/)</desc><g class="layer relationships"><g class="relationship" transform="translate(33.67415655023989 171.28524610038167) rotate(385.8249741416556)"><path class="outline" fill="#A5ABB6" stroke="none" d="M 21.40063509461097,12.933012701892217 L 21.90063509461097,12.06698729810778 A 94.97803479973051 94.97803479973051 0 0 0 41.68373664487489,20.660771997754566 L 41.39202797867621,21.61727921365238 A 95.97803479973051 95.97803479973051 0 0 1 21.40063509461097,12.933012701892217 Z M 93.00619436237089,22.840700551325526 L 92.76013241791482,21.871446446618975 A 94.97803479973051 94.97803479973051 0 0 0 112.92818826449475,14.2246323530785 L 111.55296916688476,11.558404224510209 L 119.37859041408909,11.460159146749906 L 114.76181372797473,17.779603191169553 L 113.38659463036474,15.113375062601262 A 95.97803479973051 95.97803479973051 0 0 1 93.00619436237089,22.840700551325526"/><text text-anchor="middle" pointer-events="none" font-size="8px" fill="#000000" x="67.12715224102163" y="28.26482066762864" font-family="sans-serif">PRODUCED</text></g><g class="relationship" transform="translate(33.67415655023989 171.28524610038167) rotate(385.8249741416556)"><path class="outline" fill="#A5ABB6" stroke="none" d="M 25 0.5 L 43.79857907607908 0.5 L 43.79857907607908 -0.5 L 25 -0.5 Z M 90.79857907607908 0.5 L 109.59715815215816 0.5 L 109.59715815215816 3.5 L 116.59715815215816 0 L 109.59715815215816 -3.5 L 109.59715815215816 -0.5 L 90.79857907607908 -0.5 Z"/><text text-anchor="middle" pointer-events="none" font-size="8px" fill="#000000" x="67.29857907607908" y="3" font-family="sans-serif">DIRECTED</text></g><g class="relationship" transform="translate(33.67415655023989 171.28524610038167) rotate(385.8249741416556)"><path class="outline" fill="#A5ABB6" stroke="none" d="M 21.40063509461097,-12.933012701892217 L 21.90063509461097,-12.06698729810778 A 94.97803479973051 94.97803479973051 0 0 1 49.87051221188074,-22.76428359280453 L 49.665000060321134,-23.742938156765362 A 95.97803479973051 95.97803479973051 0 0 0 21.40063509461097,-12.933012701892217 Z M 84.64179997991731,-24.572000531367166 L 84.48288708367738,-23.584707924584038 A 94.97803479973051 94.97803479973051 0 0 1 112.92818826449475,-14.2246323530785 L 111.55296916688476,-11.558404224510209 L 119.37859041408909,-11.460159146749906 L 114.76181372797473,-17.779603191169553 L 113.38659463036474,-15.113375062601262 A 95.97803479973051 95.97803479973051 0 0 0 84.64179997991731,-24.572000531367166"/><text text-anchor="middle" pointer-events="none" font-size="8px" fill="#000000" x="67.1271522410216" y="-22.26482066762864" font-family="sans-serif">WROTE</text></g><g class="relationship" transform="translate(243.9853627956643 31.96709535010118) rotate(266.79384309319573)"><path class="outline" fill="#A5ABB6" stroke="none" d="M 24.018736134675446,-6.953439040707552 L 24.277555179777966,-5.987513214418485 A 175.98372914518325 175.98372914518325 0 0 1 41.88126950519422,-9.751235689841423 L 41.72248081182322,-10.73854828008703 A 176.98372914518325 176.98372914518325 0 0 0 24.018736134675446,-6.953439040707552 Z M 93.67754496899938,-11.36938109887015 L 93.54277524088094,-10.378504153743819 A 175.98372914518325 175.98372914518325 0 0 1 111.23268381372006,-7.0433130636468375 L 110.52681421820459,-4.1275373325373925 L 118.15380545222801,-5.882246629295636 L 112.17384327440736,-10.93101403845943 L 111.4679736788919,-8.015238307349986 A 176.98372914518325 176.98372914518325 0 0 0 93.67754496899938,-11.36938109887015"/><text text-anchor="middle" pointer-events="none" font-size="8px" fill="#000000" x="67.68280733034308" y="-9.47100570349673" transform="rotate(180 67.68280733034308 -12.47100570349673)" font-family="sans-serif">PRODUCED</text></g><g class="relationship" transform="translate(243.9853627956643 31.96709535010118) rotate(266.79384309319573)"><path class="outline" fill="#A5ABB6" stroke="none" d="M 24.018736134675446,6.953439040707552 L 24.277555179777966,5.987513214418485 A 175.98372914518325 175.98372914518325 0 0 0 50.278820157748584,10.895110881915002 L 50.16774923177201,11.88892336392692 A 176.98372914518325 176.98372914518325 0 0 1 24.018736134675446,6.953439040707552 Z M 85.20683493478768,12.314364185917725 L 85.11992672521178,11.318147862467697 A 175.98372914518325 175.98372914518325 0 0 0 111.23268381372006,7.0433130636468375 L 110.52681421820459,4.1275373325373925 L 118.15380545222801,5.882246629295636 L 112.17384327440736,10.93101403845943 L 111.4679736788919,8.015238307349986 A 176.98372914518325 176.98372914518325 0 0 1 85.20683493478768,12.314364185917725"/><text text-anchor="middle" pointer-events="none" font-size="8px" fill="#000000" x="67.68280733034318" y="15.47100570349673" transform="rotate(180 67.68280733034318 12.47100570349673)" font-family="sans-serif">WROTE</text></g><g class="relationship" transform="translate(24.203660331102025 -133.13121782761047) rotate(516.6869885280873)"><path class="outline" fill="#A5ABB6" stroke="none" d="M 24.018736134675446,6.953439040707552 L 24.277555179777966,5.987513214418485 A 187.96690514773408 187.96690514773408 0 0 0 47.37596051904703,10.64761314575162 L 47.2400269644574,11.638331101951394 A 188.96690514773408 188.96690514773408 0 0 1 24.018736134675446,6.953439040707552 Z M 94.23950088734806,12.186622504934547 L 94.12671642495928,11.193003027949686 A 187.96690514773408 187.96690514773408 0 0 0 117.32754931336457,7.073025616425014 L 116.61890468471341,4.157923081301442 L 124.24756266676143,5.905371905426259 L 118.27240881823278,10.959828996589776 L 117.56376418958162,8.044726461466205 A 188.96690514773408 188.96690514773408 0 0 1 94.23950088734806,12.186622504934547"/><text text-anchor="middle" pointer-events="none" font-size="8px" fill="#000000" x="70.72848264390854" y="15.879506955690289" transform="rotate(180 70.72848264390854 12.879506955690289)" font-family="sans-serif">DIRECTED</text></g><g class="relationship" transform="translate(24.203660331102025 -133.13121782761047) rotate(243.1780008784777)"><path class="outline" fill="#A5ABB6" stroke="none" d="M 24.018736134675446,6.953439040707552 L 24.277555179777966,5.987513214418485 A 182.5590396347428 182.5590396347428 0 0 0 43.54113087607369,10.050176791145958 L 43.38783153426736,11.038356588450938 A 183.5590396347428 183.5590396347428 0 0 1 24.018736134675446,6.953439040707552 Z M 95.35106687405525,11.655477144674279 L 95.22127890268328,10.663935374254521 A 182.5590396347428 182.5590396347428 0 0 0 114.57590501478468,7.059905406933889 L 113.86848575565558,4.144505264275381 L 121.49640855750938,5.895160492742428 L 115.51913069362347,10.947105597145233 L 114.81171143449437,8.031705454486724 A 183.5590396347428 183.5590396347428 0 0 1 95.35106687405525,11.655477144674279"/><text text-anchor="middle" pointer-events="none" font-size="8px" fill="#000000" x="69.35343741136616" y="15.695153526054668" transform="rotate(180 69.35343741136616 12.695153526054668)" font-family="sans-serif">PRODUCED</text></g><g class="relationship" transform="translate(24.203660331102025 -133.13121782761047) rotate(516.6869885280873)"><path class="outline" fill="#A5ABB6" stroke="none" d="M 24.018736134675446,-6.953439040707552 L 24.277555179777966,-5.987513214418485 A 187.96690514773408 187.96690514773408 0 0 1 53.316443830614546,-11.366551314339091 L 53.212114154946576,-12.361094083039859 A 188.96690514773408 188.96690514773408 0 0 0 24.018736134675446,-6.953439040707552 Z M 88.25217792424712,-12.769868142005066 L 88.17107796745165,-11.77316216880746 A 187.96690514773408 187.96690514773408 0 0 1 117.32754931336457,-7.073025616425014 L 116.61890468471341,-4.157923081301442 L 124.24756266676143,-5.905371905426259 L 118.27240881823278,-10.959828996589776 L 117.56376418958162,-8.044726461466205 A 188.96690514773408 188.96690514773408 0 0 0 88.25217792424712,-12.769868142005066"/><text text-anchor="middle" pointer-events="none" font-size="8px" fill="#000000" x="70.7284826439085" y="-9.879506955690289" transform="rotate(180 70.7284826439085 -12.879506955690289)" font-family="sans-serif">WROTE</text></g><g class="relationship" transform="translate(24.203660331102025 -133.13121782761047) rotate(243.1780008784777)"><path class="outline" fill="#A5ABB6" stroke="none" d="M 24.018736134675446,-6.953439040707552 L 24.277555179777966,-5.987513214418485 A 182.5590396347428 182.5590396347428 0 0 1 51.944871465582544,-11.154754686579139 L 51.83760512551813,-12.148985008129046 A 183.5590396347428 183.5590396347428 0 0 0 24.018736134675446,-6.953439040707552 Z M 86.87730034099548,-12.565119916971298 L 86.79367608103713,-11.568622559650947 A 182.5590396347428 182.5590396347428 0 0 1 114.57590501478468,-7.059905406933889 L 113.86848575565558,-4.144505264275381 L 121.49640855750938,-5.895160492742428 L 115.51913069362347,-10.947105597145233 L 114.81171143449437,-8.031705454486724 A 183.5590396347428 183.5590396347428 0 0 0 86.87730034099548,-12.565119916971298"/><text text-anchor="middle" pointer-events="none" font-size="8px" fill="#000000" x="69.35343741136614" y="-9.695153526054668" transform="rotate(180 69.35343741136614 -12.695153526054668)" font-family="sans-serif">WROTE</text></g><g class="relationship" transform="translate(-178.61174040511727 -204.1664197897879) rotate(422.910453174904)"><path class="outline" fill="#A5ABB6" stroke="none" d="M 24.018736134675446,6.953439040707552 L 24.277555179777966,5.987513214418485 A 182.6099935042593 182.6099935042593 0 0 0 46.02025444512851,10.417742699529754 L 45.8805017164313,11.40792913390547 A 183.6099935042593 183.6099935042593 0 0 1 24.018736134675446,6.953439040707552 Z M 92.87626077956251,11.965960743779704 L 92.76005925344928,10.972735086978105 A 182.6099935042593 182.6099935042593 0 0 0 114.60182321389505,7.060031197032209 L 113.89439220648696,4.144633905108244 L 121.5223220629523,5.895258395067344 L 115.54506455710582,10.947227586264162 L 114.83763354969773,8.031830294340196 A 183.6099935042593 183.6099935042593 0 0 1 92.87626077956251,11.965960743779704"/><text text-anchor="middle" pointer-events="none" font-size="8px" fill="#000000" x="69.36638906886022" y="15.696890525038441" font-family="sans-serif">DIRECTED</text></g><g class="relationship" transform="translate(-178.61174040511727 -204.1664197897879) rotate(336.68029969539475)"><path class="outline" fill="#A5ABB6" stroke="none" d="M 24.018736134675446,6.953439040707552 L 24.277555179777966,5.987513214418485 A 189.3064063825935 189.3064063825935 0 0 0 45.24686968509812,10.351796432682846 L 45.09881981524971,11.340776329363194 A 190.3064063825935 190.3064063825935 0 0 1 24.018736134675446,6.953439040707552 Z M 97.0693993605689,11.94441277176432 L 96.94436026545185,10.952260956419366 A 189.3064063825935 189.3064063825935 0 0 0 118.00938601738487,7.0762051128264805 L 117.3004444391142,4.161174780463006 L 124.92928038927808,5.907846485588849 L 118.95464145507908,10.962912222644444 L 118.24569987680842,8.047881890280971 A 190.3064063825935 190.3064063825935 0 0 1 97.0693993605689,11.94441277176432"/><text text-anchor="middle" pointer-events="none" font-size="8px" fill="#000000" x="71.06921251084583" y="15.925170740696842" font-family="sans-serif">PRODUCED</text></g><g class="relationship" transform="translate(-178.61174040511727 -204.1664197897879) rotate(336.68029969539475)"><path class="outline" fill="#A5ABB6" stroke="none" d="M 24.018736134675446,-6.953439040707552 L 24.277555179777966,-5.987513214418485 A 189.3064063825935 189.3064063825935 0 0 1 53.65635097669355,-11.418784952095592 L 53.55272369904522,-12.413401153113455 A 190.3064063825935 190.3064063825935 0 0 0 24.018736134675446,-6.953439040707552 Z M 88.59286251981852,-12.82039112559525 L 88.5123649459349,-11.823636320942256 A 189.3064063825935 189.3064063825935 0 0 1 118.00938601738487,-7.0762051128264805 L 117.3004444391142,-4.161174780463006 L 124.92928038927808,-5.907846485588849 L 118.95464145507908,-10.962912222644444 L 118.24569987680842,-8.047881890280971 A 190.3064063825935 190.3064063825935 0 0 0 88.59286251981852,-12.82039112559525"/><text text-anchor="middle" pointer-events="none" font-size="8px" fill="#000000" x="71.0692125108458" y="-9.925170740696842" font-family="sans-serif">WROTE</text></g><g class="relationship" transform="translate(-178.61174040511727 -204.1664197897879) rotate(422.910453174904)"><path class="outline" fill="#A5ABB6" stroke="none" d="M 24.018736134675446,-6.953439040707552 L 24.277555179777966,-5.987513214418485 A 182.6099935042593 182.6099935042593 0 0 1 51.95778921988418,-11.156757377525167 L 51.8505513314803,-12.1509907682794 A 183.6099935042593 183.6099935042593 0 0 0 24.018736134675446,-6.953439040707552 Z M 86.8902505426556,-12.567055114299535 L 86.8066507835958,-11.570555701211305 A 182.6099935042593 182.6099935042593 0 0 1 114.60182321389505,-7.060031197032209 L 113.89439220648696,-4.144633905108244 L 121.5223220629523,-5.895258395067344 L 115.54506455710582,-10.947227586264162 L 114.83763354969773,-8.031830294340196 A 183.6099935042593 183.6099935042593 0 0 0 86.8902505426556,-12.567055114299535"/><text text-anchor="middle" pointer-events="none" font-size="8px" fill="#000000" x="69.36638906886022" y="-9.696890525038441" font-family="sans-serif">WROTE</text></g><g class="relationship" transform="translate(-206.1735159974943 100.65353765282177) rotate(433.0717181026102)"><path class="outline" fill="#A5ABB6" stroke="none" d="M 21.40063509461097,12.933012701892217 L 21.90063509461097,12.06698729810778 A 95.77258693233476 95.77258693233476 0 0 0 50.25796239199774,22.885868857635842 L 50.054052622048864,23.864858543852918 A 96.77258693233476 96.77258693233476 0 0 1 21.40063509461097,12.933012701892217 Z M 85.03267795137774,24.689612331895262 L 84.87513592554288,23.70210004837881 A 95.77258693233476 95.77258693233476 0 0 0 113.71085855413898,14.231761610029364 L 112.33497643378672,11.565875567660905 L 120.16057300639076,11.465684336268833 L 115.54536804794199,17.78627633318731 L 114.16948592758973,15.120390290818852 A 96.77258693233476 96.77258693233476 0 0 1 85.03267795137774,24.689612331895262"/><text text-anchor="middle" pointer-events="none" font-size="8px" fill="#000000" x="67.51756785011465" y="28.371330284511203" font-family="sans-serif">WROTE</text></g><g class="relationship" transform="translate(-206.1735159974943 100.65353765282177) rotate(433.0717181026102)"><path class="outline" fill="#A5ABB6" stroke="none" d="M 25 0.5 L 44.18814501306396 0.5 L 44.18814501306396 -0.5 L 25 -0.5 Z M 91.18814501306396 0.5 L 110.37629002612792 0.5 L 110.37629002612792 3.5 L 117.37629002612792 0 L 110.37629002612792 -3.5 L 110.37629002612792 -0.5 L 91.18814501306396 -0.5 Z"/><text text-anchor="middle" pointer-events="none" font-size="8px" fill="#000000" x="67.68814501306396" y="3" font-family="sans-serif">DIRECTED</text></g><g class="relationship" transform="translate(-206.1735159974943 100.65353765282177) rotate(433.0717181026102)"><path class="outline" fill="#A5ABB6" stroke="none" d="M 21.40063509461097,-12.933012701892217 L 21.90063509461097,-12.06698729810778 A 95.77258693233476 95.77258693233476 0 0 1 42.06658659853727,-20.798669217415693 L 41.77714738790149,-21.755865614894574 A 96.77258693233476 96.77258693233476 0 0 0 21.40063509461097,-12.933012701892217 Z M 93.39978480680743,-22.973065129144217 L 93.15578124139134,-22.003290794536298 A 95.77258693233476 95.77258693233476 0 0 1 113.71085855413898,-14.231761610029364 L 112.33497643378672,-11.565875567660905 L 120.16057300639076,-11.465684336268833 L 115.54536804794199,-17.78627633318731 L 114.16948592758973,-15.120390290818852 A 96.77258693233476 96.77258693233476 0 0 0 93.39978480680743,-22.973065129144217"/><text text-anchor="middle" pointer-events="none" font-size="8px" fill="#000000" x="67.5175678501146" y="-22.371330284511203" font-family="sans-serif">PRODUCED</text></g></g><g class="layer nodes"><g class="node" aria-label="graph-node45" style="touch-action: none;" transform="translate(33.67415655023989,171.28524610038167)"><circle class="outline" cx="0" cy="0" r="25" fill="#C990C0" stroke="#b261a5" stroke-width="2px"/><text class="caption" text-anchor="middle" pointer-events="none" x="0" y="0" font-size="10px" fill="#FFFFFF" font-family="sans-serif"> Cameron</text><text class="caption" text-anchor="middle" pointer-events="none" x="0" y="10" font-size="10px" fill="#FFFFFF" font-family="sans-serif"> Crowe</text></g><g class="node" aria-label="graph-node37" style="touch-action: none;" transform="translate(161.12986165176991,232.9682942889975)"><circle class="outline" cx="0" cy="0" r="25" fill="#F79767" stroke="#f36924" stroke-width="2px"/><text class="caption" text-anchor="middle" pointer-events="none" x="0" y="0" font-size="10px" fill="#FFFFFF" font-family="sans-serif"> Jerry</text><text class="caption" text-anchor="middle" pointer-events="none" x="0" y="10" font-size="10px" fill="#FFFFFF" font-family="sans-serif"> Magu…</text></g><g class="node" aria-label="graph-node72" style="touch-action: none;" transform="translate(243.9853627956643,31.96709535010118)"><circle class="outline" cx="0" cy="0" r="25" fill="#C990C0" stroke="#b261a5" stroke-width="2px"/><text class="caption" text-anchor="middle" pointer-events="none" x="0" y="0" font-size="10px" fill="#FFFFFF" font-family="sans-serif"> Nora</text><text class="caption" text-anchor="middle" pointer-events="none" x="0" y="10" font-size="10px" fill="#FFFFFF" font-family="sans-serif"> Ephron</text></g><g class="node" aria-label="graph-node81" style="touch-action: none;" transform="translate(236.01819758041952,-110.26186971608583)"><circle class="outline" cx="0" cy="0" r="25" fill="#F79767" stroke="#f36924" stroke-width="2px"/><text class="caption" text-anchor="middle" pointer-events="none" x="0" y="-5" font-size="10px" fill="#FFFFFF" font-family="sans-serif"> When</text><text class="caption" text-anchor="middle" pointer-events="none" x="0" y="5" font-size="10px" fill="#FFFFFF" font-family="sans-serif"> Harry Met</text><text class="caption" text-anchor="middle" pointer-events="none" x="0" y="15" font-size="10px" fill="#FFFFFF" font-family="sans-serif"> Sall</text></g><g class="node" aria-label="graph-node5" style="touch-action: none;" transform="translate(24.203660331102025,-133.13121782761047)"><circle class="outline" cx="0" cy="0" r="25" fill="#C990C0" stroke="#b261a5" stroke-width="2px"/><text class="caption" text-anchor="middle" pointer-events="none" x="0" y="0" font-size="10px" fill="#FFFFFF" font-family="sans-serif"> Lilly</text><text class="caption" text-anchor="middle" pointer-events="none" x="0" y="10" font-size="10px" fill="#FFFFFF" font-family="sans-serif"> Wach…</text></g><g class="node" aria-label="graph-node116" style="touch-action: none;" transform="translate(-41.580371956552106,-263.23731396379947)"><circle class="outline" cx="0" cy="0" r="25" fill="#F79767" stroke="#f36924" stroke-width="2px"/><text class="caption" text-anchor="middle" pointer-events="none" x="0" y="0" font-size="10px" fill="#FFFFFF" font-family="sans-serif"> V for</text><text class="caption" text-anchor="middle" pointer-events="none" x="0" y="10" font-size="10px" fill="#FFFFFF" font-family="sans-serif"> Vend…</text></g><g class="node" aria-label="graph-node6" style="touch-action: none;" transform="translate(-178.61174040511727,-204.1664197897879)"><circle class="outline" cx="0" cy="0" r="25" fill="#C990C0" stroke="#b261a5" stroke-width="2px"/><text class="caption" text-anchor="middle" pointer-events="none" x="0" y="0" font-size="10px" fill="#FFFFFF" font-family="sans-serif"> Lana</text><text class="caption" text-anchor="middle" pointer-events="none" x="0" y="10" font-size="10px" fill="#FFFFFF" font-family="sans-serif"> Wach…</text></g><g class="node" aria-label="graph-node121" style="touch-action: none;" transform="translate(-112.2090958892251,-74.34587583198162)"><circle class="outline" cx="0" cy="0" r="25" fill="#F79767" stroke="#f36924" stroke-width="2px"/><text class="caption" text-anchor="middle" pointer-events="none" x="0" y="0" font-size="10px" fill="#FFFFFF" font-family="sans-serif"> Speed</text><text class="caption" text-anchor="middle" pointer-events="none" x="0" y="10" font-size="10px" fill="#FFFFFF" font-family="sans-serif"> Racer</text></g><g class="node" aria-label="graph-node156" style="touch-action: none;" transform="translate(-206.1735159974943,100.65353765282177)"><circle class="outline" cx="0" cy="0" r="25" fill="#C990C0" stroke="#b261a5" stroke-width="2px"/><text class="caption" text-anchor="middle" pointer-events="none" x="0" y="0" font-size="10px" fill="#FFFFFF" font-family="sans-serif"> Nancy</text><text class="caption" text-anchor="middle" pointer-events="none" x="0" y="10" font-size="10px" fill="#FFFFFF" font-family="sans-serif"> Meyers</text></g><g class="node" aria-label="graph-node154" style="touch-action: none;" transform="translate(-164.71717762199043,236.8606592364593)"><circle class="outline" cx="0" cy="0" r="25" fill="#F79767" stroke="#f36924" stroke-width="2px"/><text class="caption" text-anchor="middle" pointer-events="none" x="0" y="5" font-size="10px" fill="#FFFFFF" font-family="sans-serif"> Someth…</text></g></g></svg>