<svg xmlns="http://www.w3.org/2000/svg" width="629.4613037109375" height="434.3376770019531" viewBox="-267.28070068359375 -208.0689697265625 629.4613037109375 434.3376770019531"><title>Neo4j Graph Visualization</title><desc>Created using Neo4j (http://www.neo4j.com/)</desc><g class="layer relationships"><g class="relationship" transform="translate(21.705299372580757 197.2687215391644) rotate(270.2386659138716)"><path class="outline" fill="#A5ABB6" stroke="none" d="M 25 0.5 L 48.96440230636645 0.5 L 48.96440230636645 -0.5 L 25 -0.5 Z M 93.96440230636645 0.5 L 117.9288046127329 0.5 L 117.9288046127329 3.5 L 124.9288046127329 0 L 117.9288046127329 -3.5 L 117.9288046127329 -0.5 L 93.96440230636645 -0.5 Z"/><text text-anchor="middle" pointer-events="none" font-size="8px" fill="#000000" x="71.46440230636645" y="3" font-family="sans-serif">ACTED_IN</text></g><g class="relationship" transform="translate(202.19201322643295 22.947032621156453) rotate(422.87785415190245)"><path class="outline" fill="#A5ABB6" stroke="none" d="M 25 0.5 L 47.165492366483676 0.5 L 47.165492366483676 -0.5 L 25 -0.5 Z M 92.16549236648368 0.5 L 114.33098473296735 0.5 L 114.33098473296735 3.5 L 121.33098473296735 0 L 114.33098473296735 -3.5 L 114.33098473296735 -0.5 L 92.16549236648368 -0.5 Z"/><text text-anchor="middle" pointer-events="none" font-size="8px" fill="#000000" x="69.66549236648368" y="3" font-family="sans-serif">ACTED_IN</text></g><g class="relationship" transform="translate(202.19201322643295 22.947032621156453) rotate(334.56886036399237)"><path class="outline" fill="#A5ABB6" stroke="none" d="M 25 0.5 L 46.52143966099206 0.5 L 46.52143966099206 -0.5 L 25 -0.5 Z M 91.52143966099206 0.5 L 113.04287932198412 0.5 L 113.04287932198412 3.5 L 120.04287932198412 0 L 113.04287932198412 -3.5 L 113.04287932198412 -0.5 L 91.52143966099206 -0.5 Z"/><text text-anchor="middle" pointer-events="none" font-size="8px" fill="#000000" x="69.02143966099206" y="3" font-family="sans-serif">ACTED_IN</text></g><g class="relationship" transform="translate(202.19201322643295 22.947032621156453) rotate(241.26566916339425)"><path class="outline" fill="#A5ABB6" stroke="none" d="M 25 0.5 L 57.871358550219085 0.5 L 57.871358550219085 -0.5 L 25 -0.5 Z M 102.87135855021909 0.5 L 135.74271710043817 0.5 L 135.74271710043817 3.5 L 142.74271710043817 0 L 135.74271710043817 -3.5 L 135.74271710043817 -0.5 L 102.87135855021909 -0.5 Z"/><text text-anchor="middle" pointer-events="none" font-size="8px" fill="#000000" x="80.37135855021909" y="3" transform="rotate(180 80.37135855021909 0)" font-family="sans-serif">ACTED_IN</text></g><g class="relationship" transform="translate(202.19201322643295 22.947032621156453) rotate(205.0470649228837)"><path class="outline" fill="#A5ABB6" stroke="none" d="M 25 0.5 L 44.51916348757027 0.5 L 44.51916348757027 -0.5 L 25 -0.5 Z M 89.51916348757027 0.5 L 109.03832697514054 0.5 L 109.03832697514054 3.5 L 116.03832697514054 0 L 109.03832697514054 -3.5 L 109.03832697514054 -0.5 L 89.51916348757027 -0.5 Z"/><text text-anchor="middle" pointer-events="none" font-size="8px" fill="#000000" x="67.01916348757027" y="3" transform="rotate(180 67.01916348757027 0)" font-family="sans-serif">ACTED_IN</text></g><g class="relationship" transform="translate(202.19201322643295 22.947032621156453) rotate(532.2762686195059)"><path class="outline" fill="#A5ABB6" stroke="none" d="M 25 0.5 L 64.75445214004888 0.5 L 64.75445214004888 -0.5 L 25 -0.5 Z M 109.75445214004888 0.5 L 149.50890428009777 0.5 L 149.50890428009777 3.5 L 156.50890428009777 0 L 149.50890428009777 -3.5 L 149.50890428009777 -0.5 L 109.75445214004888 -0.5 Z"/><text text-anchor="middle" pointer-events="none" font-size="8px" fill="#000000" x="87.25445214004888" y="3" transform="rotate(180 87.25445214004888 0)" font-family="sans-serif">ACTED_IN</text></g><g class="relationship" transform="translate(34.47281749248926 -179.06897125319298) rotate(392.2442986180442)"><path class="outline" fill="#A5ABB6" stroke="none" d="M 25 0.5 L 25.4773111200144 0.5 L 25.4773111200144 -0.5 L 25 -0.5 Z M 70.4773111200144 0.5 L 70.9546222400288 0.5 L 70.9546222400288 3.5 L 77.9546222400288 0 L 70.9546222400288 -3.5 L 70.9546222400288 -0.5 L 70.4773111200144 -0.5 Z"/><text text-anchor="middle" pointer-events="none" font-size="8px" fill="#000000" x="47.9773111200144" y="3" font-family="sans-serif">ACTED_IN</text></g><g class="relationship" transform="translate(34.47281749248926 -179.06897125319298) rotate(434.3209906099048)"><path class="outline" fill="#A5ABB6" stroke="none" d="M 25 0.5 L 47.90268436738283 0.5 L 47.90268436738283 -0.5 L 25 -0.5 Z M 92.90268436738283 0.5 L 115.80536873476566 0.5 L 115.80536873476566 3.5 L 122.80536873476566 0 L 115.80536873476566 -3.5 L 115.80536873476566 -0.5 L 92.90268436738283 -0.5 Z"/><text text-anchor="middle" pointer-events="none" font-size="8px" fill="#000000" x="70.40268436738283" y="3" font-family="sans-serif">ACTED_IN</text></g><g class="relationship" transform="translate(34.47281749248926 -179.06897125319298) rotate(453.06998625224963)"><path class="outline" fill="#A5ABB6" stroke="none" d="M 25 0.5 L 87.3677928981399 0.5 L 87.3677928981399 -0.5 L 25 -0.5 Z M 132.3677928981399 0.5 L 194.7355857962798 0.5 L 194.7355857962798 3.5 L 201.7355857962798 0 L 194.7355857962798 -3.5 L 194.7355857962798 -0.5 L 132.3677928981399 -0.5 Z"/><text text-anchor="middle" pointer-events="none" font-size="8px" fill="#000000" x="109.8677928981399" y="3" transform="rotate(180 109.8677928981399 0)" font-family="sans-serif">ACTED_IN</text></g><g class="relationship" transform="translate(-38.40565028231168 -111.93270585352802) rotate(355.6359873289118)"><path class="outline" fill="#A5ABB6" stroke="none" d="M 25 0.5 L 54.210311600413775 0.5 L 54.210311600413775 -0.5 L 25 -0.5 Z M 99.21031160041377 0.5 L 128.42062320082755 0.5 L 128.42062320082755 3.5 L 135.42062320082755 0 L 128.42062320082755 -3.5 L 128.42062320082755 -0.5 L 99.21031160041377 -0.5 Z"/><text text-anchor="middle" pointer-events="none" font-size="8px" fill="#000000" x="76.71031160041377" y="3" font-family="sans-serif">ACTED_IN</text></g><g class="relationship" transform="translate(-38.40565028231168 -111.93270585352802) rotate(393.67401950448607)"><path class="outline" fill="#A5ABB6" stroke="none" d="M 25 0.5 L 41.78525097475527 0.5 L 41.78525097475527 -0.5 L 25 -0.5 Z M 86.78525097475527 0.5 L 103.57050194951054 0.5 L 103.57050194951054 3.5 L 110.57050194951054 0 L 103.57050194951054 -3.5 L 103.57050194951054 -0.5 L 86.78525097475527 -0.5 Z"/><text text-anchor="middle" pointer-events="none" font-size="8px" fill="#000000" x="64.28525097475527" y="3" font-family="sans-serif">ACTED_IN</text></g><g class="relationship" transform="translate(-38.40565028231168 -111.93270585352802) rotate(429.12679106399713)"><path class="outline" fill="#A5ABB6" stroke="none" d="M 25 0.5 L 59.23054162372398 0.5 L 59.23054162372398 -0.5 L 25 -0.5 Z M 104.23054162372398 0.5 L 138.46108324744796 0.5 L 138.46108324744796 3.5 L 145.46108324744796 0 L 138.46108324744796 -3.5 L 138.46108324744796 -0.5 L 104.23054162372398 -0.5 Z"/><text text-anchor="middle" pointer-events="none" font-size="8px" fill="#000000" x="81.73054162372398" y="3" font-family="sans-serif">ACTED_IN</text></g><g class="relationship" transform="translate(-92.41149775560281 -28.222256075244594) rotate(238.62477034433573)"><path class="outline" fill="#A5ABB6" stroke="none" d="M 25 0.5 L 49.73909121896507 0.5 L 49.73909121896507 -0.5 L 25 -0.5 Z M 94.73909121896507 0.5 L 119.47818243793014 0.5 L 119.47818243793014 3.5 L 126.47818243793014 0 L 119.47818243793014 -3.5 L 119.47818243793014 -0.5 L 94.73909121896507 -0.5 Z"/><text text-anchor="middle" pointer-events="none" font-size="8px" fill="#000000" x="72.23909121896507" y="3" transform="rotate(180 72.23909121896507 0)" font-family="sans-serif">ACTED_IN</text></g><g class="relationship" transform="translate(-92.41149775560281 -28.222256075244594) rotate(194.82442389320806)"><path class="outline" fill="#A5ABB6" stroke="none" d="M 25 0.5 L 49.44586826524062 0.5 L 49.44586826524062 -0.5 L 25 -0.5 Z M 94.44586826524062 0.5 L 118.89173653048124 0.5 L 118.89173653048124 3.5 L 125.89173653048124 0 L 118.89173653048124 -3.5 L 118.89173653048124 -0.5 L 94.44586826524062 -0.5 Z"/><text text-anchor="middle" pointer-events="none" font-size="8px" fill="#000000" x="71.94586826524062" y="3" transform="rotate(180 71.94586826524062 0)" font-family="sans-serif">ACTED_IN</text></g><g class="relationship" transform="translate(-92.41149775560281 -28.222256075244594) rotate(469.44714849031504)"><path class="outline" fill="#A5ABB6" stroke="none" d="M 25 0.5 L 49.219984627792854 0.5 L 49.219984627792854 -0.5 L 25 -0.5 Z M 94.21998462779285 0.5 L 118.43996925558571 0.5 L 118.43996925558571 3.5 L 125.43996925558571 0 L 118.43996925558571 -3.5 L 118.43996925558571 -0.5 L 94.21998462779285 -0.5 Z"/><text text-anchor="middle" pointer-events="none" font-size="8px" fill="#000000" x="71.71998462779285" y="3" transform="rotate(180 71.71998462779285 0)" font-family="sans-serif">ACTED_IN</text></g><g class="relationship" transform="translate(-92.41149775560281 -28.222256075244594) rotate(513.7206322881302)"><path class="outline" fill="#A5ABB6" stroke="none" d="M 25 0.5 L 49.561303625637464 0.5 L 49.561303625637464 -0.5 L 25 -0.5 Z M 94.56130362563746 0.5 L 119.12260725127493 0.5 L 119.12260725127493 3.5 L 126.12260725127493 0 L 119.12260725127493 -3.5 L 119.12260725127493 -0.5 L 94.56130362563746 -0.5 Z"/><text text-anchor="middle" pointer-events="none" font-size="8px" fill="#000000" x="72.06130362563746" y="3" transform="rotate(180 72.06130362563746 0)" font-family="sans-serif">ACTED_IN</text></g><g class="relationship" transform="translate(-92.41149775560281 -28.222256075244594) rotate(335.85365950044115)"><path class="outline" fill="#A5ABB6" stroke="none" d="M 25 0.5 L 91.2386413126603 0.5 L 91.2386413126603 -0.5 L 25 -0.5 Z M 136.23864131266032 0.5 L 202.4772826253206 0.5 L 202.4772826253206 3.5 L 209.4772826253206 0 L 202.4772826253206 -3.5 L 202.4772826253206 -0.5 L 136.23864131266032 -0.5 Z"/><text text-anchor="middle" pointer-events="none" font-size="8px" fill="#000000" x="113.7386413126603" y="3" font-family="sans-serif">ACTED_IN</text></g><g class="relationship" transform="translate(-92.41149775560281 -28.222256075244594) rotate(357.069203770925)"><path class="outline" fill="#A5ABB6" stroke="none" d="M 25 0.5 L 57.52343813548019 0.5 L 57.52343813548019 -0.5 L 25 -0.5 Z M 102.52343813548019 0.5 L 135.04687627096038 0.5 L 135.04687627096038 3.5 L 142.04687627096038 0 L 135.04687627096038 -3.5 L 135.04687627096038 -0.5 L 102.52343813548019 -0.5 Z"/><text text-anchor="middle" pointer-events="none" font-size="8px" fill="#000000" x="80.02343813548019" y="3" font-family="sans-serif">ACTED_IN</text></g><g class="relationship" transform="translate(-92.41149775560281 -28.222256075244594) rotate(393.36710216133065)"><path class="outline" fill="#A5ABB6" stroke="none" d="M 25 0.5 L 42.69390465701703 0.5 L 42.69390465701703 -0.5 L 25 -0.5 Z M 87.69390465701703 0.5 L 105.38780931403406 0.5 L 105.38780931403406 3.5 L 112.38780931403406 0 L 105.38780931403406 -3.5 L 105.38780931403406 -0.5 L 87.69390465701703 -0.5 Z"/><text text-anchor="middle" pointer-events="none" font-size="8px" fill="#000000" x="65.19390465701703" y="3" font-family="sans-serif">ACTED_IN</text></g></g><g class="layer nodes"><g class="node" aria-label="graph-node8" style="touch-action: none;" transform="translate(21.705299372580757,197.2687215391644)"><circle class="outline" cx="0" cy="0" r="25" fill="#C990C0" stroke="#b261a5" stroke-width="2px"/><text class="caption" text-anchor="middle" pointer-events="none" x="0" y="0" font-size="10px" fill="#FFFFFF" font-family="sans-serif"> Emil</text><text class="caption" text-anchor="middle" pointer-events="none" x="0" y="10" font-size="10px" fill="#FFFFFF" font-family="sans-serif"> Eifrem</text></g><g class="node" aria-label="graph-node0" style="touch-action: none;" transform="translate(22.329826903089412,47.341217664902985)"><circle class="outline" cx="0" cy="0" r="25" fill="#F79767" stroke="#f36924" stroke-width="2px"/><text class="caption" text-anchor="middle" pointer-events="none" x="0" y="0" font-size="10px" fill="#FFFFFF" font-family="sans-serif"> The</text><text class="caption" text-anchor="middle" pointer-events="none" x="0" y="10" font-size="10px" fill="#FFFFFF" font-family="sans-serif"> Matrix</text></g><g class="node" aria-label="graph-node4" style="touch-action: none;" transform="translate(202.19201322643295,22.947032621156453)"><circle class="outline" cx="0" cy="0" r="25" fill="#C990C0" stroke="#b261a5" stroke-width="2px"/><text class="caption" text-anchor="middle" pointer-events="none" x="0" y="0" font-size="10px" fill="#FFFFFF" font-family="sans-serif"> Hugo</text><text class="caption" text-anchor="middle" pointer-events="none" x="0" y="10" font-size="10px" fill="#FFFFFF" font-family="sans-serif"> Weavi…</text></g><g class="node" aria-label="graph-node105" style="touch-action: none;" transform="translate(268.90269315092456,153.18697379486846)"><circle class="outline" cx="0" cy="0" r="25" fill="#F79767" stroke="#f36924" stroke-width="2px"/><text class="caption" text-anchor="middle" pointer-events="none" x="0" y="0" font-size="10px" fill="#FFFFFF" font-family="sans-serif"> Cloud</text><text class="caption" text-anchor="middle" pointer-events="none" x="0" y="10" font-size="10px" fill="#FFFFFF" font-family="sans-serif"> Atlas</text></g><g class="node" aria-label="graph-node116" style="touch-action: none;" transform="translate(333.1805331190065,-39.338154208173314)"><circle class="outline" cx="0" cy="0" r="25" fill="#F79767" stroke="#f36924" stroke-width="2px"/><text class="caption" text-anchor="middle" pointer-events="none" x="0" y="0" font-size="10px" fill="#FFFFFF" font-family="sans-serif"> V for</text><text class="caption" text-anchor="middle" pointer-events="none" x="0" y="10" font-size="10px" fill="#FFFFFF" font-family="sans-serif"> Vend…</text></g><g class="node" aria-label="graph-node10" style="touch-action: none;" transform="translate(121.54987223516099,-124.13955492706783)"><circle class="outline" cx="0" cy="0" r="25" fill="#F79767" stroke="#f36924" stroke-width="2px"/><text class="caption" text-anchor="middle" pointer-events="none" x="0" y="-5" font-size="10px" fill="#FFFFFF" font-family="sans-serif"> The</text><text class="caption" text-anchor="middle" pointer-events="none" x="0" y="5" font-size="10px" fill="#FFFFFF" font-family="sans-serif"> Matrix</text><text class="caption" text-anchor="middle" pointer-events="none" x="0" y="15" font-size="10px" fill="#FFFFFF" font-family="sans-serif"> Rev…</text></g><g class="node" aria-label="graph-node9" style="touch-action: none;" transform="translate(74.41688444813954,-36.76331942635031)"><circle class="outline" cx="0" cy="0" r="25" fill="#F79767" stroke="#f36924" stroke-width="2px"/><text class="caption" text-anchor="middle" pointer-events="none" x="0" y="-5" font-size="10px" fill="#FFFFFF" font-family="sans-serif"> The</text><text class="caption" text-anchor="middle" pointer-events="none" x="0" y="5" font-size="10px" fill="#FFFFFF" font-family="sans-serif"> Matrix</text><text class="caption" text-anchor="middle" pointer-events="none" x="0" y="15" font-size="10px" fill="#FFFFFF" font-family="sans-serif"> Rel…</text></g><g class="node" aria-label="graph-node3" style="touch-action: none;" transform="translate(34.47281749248926,-179.06897125319298)"><circle class="outline" cx="0" cy="0" r="25" fill="#C990C0" stroke="#b261a5" stroke-width="2px"/><text class="caption" text-anchor="middle" pointer-events="none" x="0" y="0" font-size="10px" fill="#FFFFFF" font-family="sans-serif"> Laurence</text><text class="caption" text-anchor="middle" pointer-events="none" x="0" y="10" font-size="10px" fill="#FFFFFF" font-family="sans-serif"> Fishb…</text></g><g class="node" aria-label="graph-node2" style="touch-action: none;" transform="translate(-38.40565028231168,-111.93270585352802)"><circle class="outline" cx="0" cy="0" r="25" fill="#C990C0" stroke="#b261a5" stroke-width="2px"/><text class="caption" text-anchor="middle" pointer-events="none" x="0" y="5" font-size="10px" fill="#FFFFFF" font-family="sans-serif"> Carrie-A…</text></g><g class="node" aria-label="graph-node1" style="touch-action: none;" transform="translate(-92.41149775560281,-28.222256075244594)"><circle class="outline" cx="0" cy="0" r="25" fill="#C990C0" stroke="#b261a5" stroke-width="2px"/><text class="caption" text-anchor="middle" pointer-events="none" x="0" y="0" font-size="10px" fill="#FFFFFF" font-family="sans-serif"> Keanu</text><text class="caption" text-anchor="middle" pointer-events="none" x="0" y="10" font-size="10px" fill="#FFFFFF" font-family="sans-serif"> Reeves</text></g><g class="node" aria-label="graph-node154" style="touch-action: none;" transform="translate(-171.27718539829,-157.55068708461292)"><circle class="outline" cx="0" cy="0" r="25" fill="#F79767" stroke="#f36924" stroke-width="2px"/><text class="caption" text-anchor="middle" pointer-events="none" x="0" y="5" font-size="10px" fill="#FFFFFF" font-family="sans-serif"> Someth…</text></g><g class="node" aria-label="graph-node87" style="touch-action: none;" transform="translate(-238.28071381322926,-66.82909432856012)"><circle class="outline" cx="0" cy="0" r="25" fill="#F79767" stroke="#f36924" stroke-width="2px"/><text class="caption" text-anchor="middle" pointer-events="none" x="0" y="0" font-size="10px" fill="#FFFFFF" font-family="sans-serif"> The</text><text class="caption" text-anchor="middle" pointer-events="none" x="0" y="10" font-size="10px" fill="#FFFFFF" font-family="sans-serif"> Repla…</text></g><g class="node" aria-label="graph-node100" style="touch-action: none;" transform="translate(-142.49855896342947,113.63496316010134)"><circle class="outline" cx="0" cy="0" r="25" fill="#F79767" stroke="#f36924" stroke-width="2px"/><text class="caption" text-anchor="middle" pointer-events="none" x="0" y="0" font-size="10px" fill="#FFFFFF" font-family="sans-serif"> Johnny</text><text class="caption" text-anchor="middle" pointer-events="none" x="0" y="10" font-size="10px" fill="#FFFFFF" font-family="sans-serif"> Mne…</text></g><g class="node" aria-label="graph-node11" style="touch-action: none;" transform="translate(-227.91496738936502,38.68702683553822)"><circle class="outline" cx="0" cy="0" r="25" fill="#F79767" stroke="#f36924" stroke-width="2px"/><text class="caption" text-anchor="middle" pointer-events="none" x="0" y="-5" font-size="10px" fill="#FFFFFF" font-family="sans-serif"> The</text><text class="caption" text-anchor="middle" pointer-events="none" x="0" y="5" font-size="10px" fill="#FFFFFF" font-family="sans-serif"> Devil's</text><text class="caption" text-anchor="middle" pointer-events="none" x="0" y="15" font-size="10px" fill="#FFFFFF" font-family="sans-serif"> Adv…</text></g></g></svg>