<svg xmlns="http://www.w3.org/2000/svg" width="211.1533203125" height="211.4883270263672" viewBox="-150.2226104736328 -149.63873291015625 211.1533203125 211.4883270263672"><title>Neo4j Graph Visualization</title><desc>Created using Neo4j (http://www.neo4j.com/)</desc><g class="layer relationships"><g class="relationship" transform="translate(-37.486842191996146 32.849588945772936) rotate(275.10923516588923)"><path class="outline" fill="#A5ABB6" stroke="none" d="M 21.40063509461097,12.933012701892217 L 21.90063509461097,12.06698729810778 A 107.71011466349445 107.71011466349445 0 0 0 64.46467087871248,25.903964748660968 L 64.3598430119618,26.898455129887708 A 108.71011466349445 108.71011466349445 0 0 1 21.40063509461097,12.933012701892217 Z M 82.41786211824008,27.29307282284826 L 82.35657831118584,26.294952441835562 A 107.71011466349445 107.71011466349445 0 0 0 125.4844449909238,14.330580212080093 L 124.09937304888956,11.669457194369432 L 131.92457735592106,11.542266183618647 L 127.33120758030279,17.87874423569431 L 125.94613563826854,15.217621217983648 A 108.71011466349445 108.71011466349445 0 0 1 82.41786211824008,27.29307282284826"/><text text-anchor="middle" pointer-events="none" font-size="8px" fill="#000000" x="73.3915663690228" y="29.97157815311232" font-family="sans-serif">trek</text></g><g class="relationship" transform="translate(-23.763437438552483 -120.63872935212855) rotate(494.3636615033079)"><path class="outline" fill="#A5ABB6" stroke="none" d="M 25 0.5 L 57.19234230550914 0.5 L 57.19234230550914 -0.5 L 25 -0.5 Z M 75.19234230550914 0.5 L 107.38468461101829 0.5 L 107.38468461101829 3.5 L 114.38468461101829 0 L 107.38468461101829 -3.5 L 107.38468461101829 -0.5 L 75.19234230550914 -0.5 Z"/><text text-anchor="middle" pointer-events="none" font-size="8px" fill="#000000" x="66.19234230550914" y="3" transform="rotate(180 66.19234230550914 0)" font-family="sans-serif">trek</text></g><g class="relationship" transform="translate(-121.22261146050745 -20.990349018721545) rotate(353.6345036999437)"><path class="outline" fill="#A5ABB6" stroke="none" d="M 25 0.5 L 64.5516898208531 0.5 L 64.5516898208531 -0.5 L 25 -0.5 Z M 82.5516898208531 0.5 L 122.1033796417062 0.5 L 122.1033796417062 3.5 L 129.1033796417062 0 L 122.1033796417062 -3.5 L 122.1033796417062 -0.5 L 82.5516898208531 -0.5 Z"/><text text-anchor="middle" pointer-events="none" font-size="8px" fill="#000000" x="73.5516898208531" y="3" font-family="sans-serif">trek</text></g><g class="relationship" transform="translate(-37.486842191996146 32.849588945772936) rotate(275.10923516588923)"><path class="outline" fill="#A5ABB6" stroke="none" d="M 25 0.5 L 63.050301251754945 0.5 L 63.050301251754945 -0.5 L 25 -0.5 Z M 84.05030125175495 0.5 L 122.10060250350989 0.5 L 122.10060250350989 3.5 L 129.1006025035099 0 L 122.10060250350989 -3.5 L 122.10060250350989 -0.5 L 84.05030125175495 -0.5 Z"/><text text-anchor="middle" pointer-events="none" font-size="8px" fill="#000000" x="73.55030125175495" y="3" font-family="sans-serif">road</text></g><g class="relationship" transform="translate(-37.486842191996146 32.849588945772936) rotate(275.10923516588923)"><path class="outline" fill="#A5ABB6" stroke="none" d="M 21.40063509461097,-12.933012701892217 L 21.90063509461097,-12.06698729810778 A 107.71011466349445 107.71011466349445 0 0 1 44.01906557421422,-21.715690736370448 L 43.72441704513879,-22.671296431369015 A 108.71011466349445 108.71011466349445 0 0 0 21.40063509461097,-12.933012701892217 Z M 103.21825091565383,-23.971401350363095 L 102.96562899013838,-23.003836281363135 A 107.71011466349445 107.71011466349445 0 0 1 125.4844449909238,-14.330580212080093 L 124.09937304888956,-11.669457194369432 L 131.92457735592106,-11.542266183618647 L 127.33120758030279,-17.87874423569431 L 125.94613563826854,-15.217621217983648 A 108.71011466349445 108.71011466349445 0 0 0 103.21825091565383,-23.971401350363095"/><text text-anchor="middle" pointer-events="none" font-size="8px" fill="#000000" x="73.39156636902281" y="-23.97157815311232" font-family="sans-serif">PublicTransport</text></g></g><g class="layer nodes"><g class="node" aria-label="graph-node172" style="touch-action: none;" transform="translate(-37.486842191996146,32.849588945772936)"><circle class="outline" cx="0" cy="0" r="25" fill="#F16667" stroke="#eb2728" stroke-width="2px"/><text class="caption" text-anchor="middle" pointer-events="none" x="0" y="5" font-size="10px" fill="#FFFFFF" font-family="sans-serif"> Darjeeli…</text></g><g class="node" aria-label="graph-node174" style="touch-action: none;" transform="translate(31.930700181425742,-38.07586189088064)"><circle class="outline" cx="0" cy="0" r="25" fill="#57C7E3" stroke="#23b3d7" stroke-width="2px"/><text class="caption" text-anchor="middle" pointer-events="none" x="0" y="5" font-size="10px" fill="#2A2C34" font-family="sans-serif"> Sandak…</text></g><g class="node" aria-label="graph-node171" style="touch-action: none;" transform="translate(-23.763437438552483,-120.63872935212855)"><circle class="outline" cx="0" cy="0" r="25" fill="#F16667" stroke="#eb2728" stroke-width="2px"/><text class="caption" text-anchor="middle" pointer-events="none" x="0" y="5" font-size="10px" fill="#FFFFFF" font-family="sans-serif"> Rimbik</text></g><g class="node" aria-label="graph-node173" style="touch-action: none;" transform="translate(-121.22261146050745,-20.990349018721545)"><circle class="outline" cx="0" cy="0" r="25" fill="#D9C8AE" stroke="#c0a378" stroke-width="2px"/><text class="caption" text-anchor="middle" pointer-events="none" x="0" y="5" font-size="10px" fill="#2A2C34" font-family="sans-serif"> BhikeBh…</text></g></g></svg>