<svg xmlns="http://www.w3.org/2000/svg" width="284.4166259765625" height="265.34423828125" viewBox="-132.9480438232422 -138.42010498046875 284.4166259765625 265.34423828125"><title>Neo4j Graph Visualization</title><desc>Created using Neo4j (http://www.neo4j.com/)</desc><g class="layer relationships"><g class="relationship" transform="translate(122.46856302406488 -2.013503833953976) rotate(228.61370374100522)"><path class="outline" fill="#A5ABB6" stroke="none" d="M 21.40063509461097,12.933012701892217 L 21.90063509461097,12.06698729810778 A 96.56898867557139 96.56898867557139 0 0 0 58.992057430232926,24.35390451105249 L 58.876149910068584,25.347164520702208 A 97.56898867557139 97.56898867557139 0 0 1 21.40063509461097,12.933012701892217 Z M 76.93798841595269,25.77081157384542 L 76.86877729595216,24.773209538528604 A 96.56898867557139 96.56898867557139 0 0 0 114.49548144513226,14.238833413322876 L 113.11894164844043,11.573286904982867 L 120.94451326404092,11.471164972431938 L 116.33086784072137,17.792895424442886 L 114.95432804402954,15.127348916102878 A 97.56898867557139 97.56898867557139 0 0 1 76.93798841595269,25.77081157384542"/><text text-anchor="middle" pointer-events="none" font-size="8px" fill="#000000" x="67.90896670057421" y="28.478088117065553" transform="rotate(180 67.90896670057421 25.478088117065553)" font-family="sans-serif">trek</text></g><g class="relationship" transform="translate(27.82256155103667 -109.42009496588904) rotate(514.5948525387992)"><path class="outline" fill="#A5ABB6" stroke="none" d="M 25 0.5 L 60.43871308717986 0.5 L 60.43871308717986 -0.5 L 25 -0.5 Z M 78.43871308717986 0.5 L 113.87742617435973 0.5 L 113.87742617435973 3.5 L 120.87742617435973 0 L 113.87742617435973 -3.5 L 113.87742617435973 -0.5 L 78.43871308717986 -0.5 Z"/><text text-anchor="middle" pointer-events="none" font-size="8px" fill="#000000" x="69.43871308717986" y="3" transform="rotate(180 69.43871308717986 0)" font-family="sans-serif">trek</text></g><g class="relationship" transform="translate(-103.94804393911043 -46.83630316628817) rotate(446.49021451101487)"><path class="outline" fill="#A5ABB6" stroke="none" d="M 25 0.5 L 60.0162351742847 0.5 L 60.0162351742847 -0.5 L 25 -0.5 Z M 78.0162351742847 0.5 L 113.0324703485694 0.5 L 113.0324703485694 3.5 L 120.0324703485694 0 L 113.0324703485694 -3.5 L 113.0324703485694 -0.5 L 78.0162351742847 -0.5 Z"/><text text-anchor="middle" pointer-events="none" font-size="8px" fill="#000000" x="69.0162351742847" y="3" font-family="sans-serif">trek</text></g><g class="relationship" transform="translate(122.46856302406488 -2.013503833953976) rotate(228.61370374100522)"><path class="outline" fill="#A5ABB6" stroke="none" d="M 25 0.5 L 57.5787004167705 0.5 L 57.5787004167705 -0.5 L 25 -0.5 Z M 78.5787004167705 0.5 L 111.157400833541 0.5 L 111.157400833541 3.5 L 118.157400833541 0 L 111.157400833541 -3.5 L 111.157400833541 -0.5 L 78.5787004167705 -0.5 Z"/><text text-anchor="middle" pointer-events="none" font-size="8px" fill="#000000" x="68.0787004167705" y="3" transform="rotate(180 68.0787004167705 0)" font-family="sans-serif">road</text></g><g class="relationship" transform="translate(122.46856302406488 -2.013503833953976) rotate(228.61370374100522)"><path class="outline" fill="#A5ABB6" stroke="none" d="M 21.40063509461097,-12.933012701892217 L 21.90063509461097,-12.06698729810778 A 96.56898867557139 96.56898867557139 0 0 1 38.66344702190841,-19.715322707277465 L 38.33703082098508,-20.66054885152802 A 97.56898867557139 97.56898867557139 0 0 0 21.40063509461097,-12.933012701892217 Z M 97.6742522600233,-22.052325164673846 L 97.39251189148231,-21.09283448481584 A 96.56898867557139 96.56898867557139 0 0 1 114.49548144513226,-14.238833413322876 L 113.11894164844043,-11.573286904982867 L 120.94451326404092,-11.471164972431938 L 116.33086784072137,-17.792895424442886 L 114.95432804402954,-15.127348916102878 A 97.56898867557139 97.56898867557139 0 0 0 97.6742522600233,-22.052325164673846"/><text text-anchor="middle" pointer-events="none" font-size="8px" fill="#000000" x="67.90896670057421" y="-22.478088117065553" transform="rotate(180 67.90896670057421 -25.478088117065553)" font-family="sans-serif">PublicTransport</text></g></g><g class="layer nodes"><g class="node" aria-label="graph-node172" style="touch-action: none;" transform="translate(122.46856302406488,-2.013503833953976)"><circle class="outline" cx="0" cy="0" r="25" fill="#F16667" stroke="#eb2728" stroke-width="2px"/><text class="caption" text-anchor="middle" pointer-events="none" x="0" y="5" font-size="10px" fill="#FFFFFF" font-family="sans-serif"> Darjeeli…</text></g><g class="node" aria-label="graph-node174" style="touch-action: none;" transform="translate(-95.06929981857425,97.92413810911935)"><circle class="outline" cx="0" cy="0" r="25" fill="#57C7E3" stroke="#23b3d7" stroke-width="2px"/><text class="caption" text-anchor="middle" pointer-events="none" x="0" y="5" font-size="10px" fill="#2A2C34" font-family="sans-serif"> Sandak…</text></g><g class="node" aria-label="graph-node171" style="touch-action: none;" transform="translate(27.82256155103667,-109.42009496588904)"><circle class="outline" cx="0" cy="0" r="25" fill="#F16667" stroke="#eb2728" stroke-width="2px"/><text class="caption" text-anchor="middle" pointer-events="none" x="0" y="5" font-size="10px" fill="#FFFFFF" font-family="sans-serif"> Rimbik</text></g><g class="node" aria-label="graph-node173" style="touch-action: none;" transform="translate(-103.94804393911043,-46.83630316628817)"><circle class="outline" cx="0" cy="0" r="25" fill="#D9C8AE" stroke="#c0a378" stroke-width="2px"/><text class="caption" text-anchor="middle" pointer-events="none" x="0" y="5" font-size="10px" fill="#2A2C34" font-family="sans-serif"> BhikeBh…</text></g></g></svg>