<svg xmlns="http://www.w3.org/2000/svg" width="228.48974609375" height="253.3264617919922" viewBox="-134.89671325683594 -138.1348876953125 228.48974609375 253.3264617919922"><title>Neo4j Graph Visualization</title><desc>Created using Neo4j (http://www.neo4j.com/)</desc><g class="layer relationships"><g class="relationship" transform="translate(-32.155729864163526 86.1915740809637) rotate(251.544747472866)"><path class="outline" fill="#A5ABB6" stroke="none" d="M 5.987513214418485,-24.277555179777966 L 6.953439040707552,-24.018736134675446 A 65.31544352927733 65.31544352927733 0 0 1 53.76914196855754,-70.36935736148985 L 53.51997929043365,-71.33781900751933 A 66.31544352927733 66.31544352927733 0 0 0 5.987513214418485,-24.277555179777966 Z M 80.5052803296268,-72.59885587511056 L 80.34751967883892,-71.61137849457822 A 65.31544352927733 65.31544352927733 0 0 1 131.28173843635574,-29.828660915396416 L 128.46899971824175,-28.785348448480313 L 134.18492397884563,-23.43948931761649 L 135.03205672717436,-31.219744204617882 L 132.21931800906037,-30.17643173770178 A 66.31544352927733 66.31544352927733 0 0 0 80.5052803296268,-72.59885587511056"/><text text-anchor="middle" pointer-events="none" font-size="8px" fill="#000000" x="66.97107624398255" y="-69.85755449584116" transform="rotate(180 66.97107624398255 -72.85755449584116)" font-family="sans-serif">FLIES</text></g><g class="relationship" transform="translate(-77.38612887666109 -49.33951178705221) rotate(353.5222504032914)"><path class="outline" fill="#A5ABB6" stroke="none" d="M 5.987513214418485,24.277555179777966 L 6.953439040707552,24.018736134675446 A 65.3218941467885 65.3218941467885 0 0 0 53.775286383153826,70.37432625427127 L 53.526146987417896,71.34279389001978 A 66.3218941467885 66.3218941467885 0 0 1 5.987513214418485,24.277555179777966 Z M 80.51147024562506,72.60372527876453 L 80.35372555571529,71.61624534843415 A 65.3218941467885 65.3218941467885 0 0 0 131.29419616759623,29.828752270535492 L 128.48144923113608,28.785461960298683 L 134.19733138089214,23.4395578038346 L 135.04452541620975,31.219806017517904 L 132.2317784797496,30.176515707281094 A 66.3218941467885 66.3218941467885 0 0 1 80.51147024562506,72.60372527876453"/><text text-anchor="middle" pointer-events="none" font-size="8px" fill="#000000" x="66.97726491517449" y="75.862340640029" font-family="sans-serif">FLIES</text></g><g class="relationship" transform="translate(-32.155729864163526 86.1915740809637) rotate(251.544747472866)"><path class="outline" fill="#A5ABB6" stroke="none" d="M 17.324116139070416,-18.031222920256962 L 18.031222920256962,-17.324116139070416 A 73.55620291694322 73.55620291694322 0 0 1 54.295357739422265,-37.16268317187834 L 54.08126355786805,-38.13949619463379 A 74.55620291694322 74.55620291694322 0 0 0 17.324116139070416,-18.031222920256962 Z M 81.09811776708088,-39.044099879880406 L 80.94984298197366,-38.05515367906794 A 73.55620291694322 73.55620291694322 0 0 1 118.45977622644251,-20.686759277359375 L 116.48510400960917,-18.4282930641814 L 124.05864275999669,-16.455601806944557 L 121.09267251555364,-23.698047561596677 L 119.1180002987203,-21.439581348418702 A 74.55620291694322 74.55620291694322 0 0 0 81.09811776708088,-39.044099879880406"/><text text-anchor="middle" pointer-events="none" font-size="8px" fill="#000000" x="67.56508225787144" y="-36.32675157583368" transform="rotate(180 67.56508225787144 -39.32675157583368)" font-family="sans-serif">FLIES</text></g><g class="relationship" transform="translate(-32.155729864163526 86.1915740809637) rotate(251.544747472866)"><path class="outline" fill="#A5ABB6" stroke="none" d="M 24.018736134675446,-6.953439040707552 L 24.277555179777966,-5.987513214418485 A 176.8253089847194 176.8253089847194 0 0 1 54.46085826396433,-11.324761588683856 L 54.37273482379241,-12.320871150575641 A 177.8253089847194 177.8253089847194 0 0 0 24.018736134675446,-6.953439040707552 Z M 81.42073592060642,-12.648347383930712 L 81.3567550216871,-11.650396260591748 A 176.8253089847194 176.8253089847194 0 0 1 111.6604301616976,-7.045477337400772 L 110.95435843023297,-4.129750548069074 L 118.581471292049,-5.883931095538584 L 112.60185913698378,-10.933113056509704 L 111.89578740551914,-8.017386267178006 A 177.8253089847194 177.8253089847194 0 0 0 81.42073592060642,-12.648347383930712"/><text text-anchor="middle" pointer-events="none" font-size="8px" fill="#000000" x="67.89655273392795" y="-9.49969433195065" transform="rotate(180 67.89655273392795 -12.49969433195065)" font-family="sans-serif">FLIES</text></g><g class="relationship" transform="translate(-77.38612887666109 -49.33951178705221) rotate(431.544747472866)"><path class="outline" fill="#A5ABB6" stroke="none" d="M 24.018736134675446,-6.953439040707552 L 24.277555179777966,-5.987513214418485 A 176.8253089847194 176.8253089847194 0 0 1 54.46085826396433,-11.324761588683856 L 54.37273482379241,-12.320871150575641 A 177.8253089847194 177.8253089847194 0 0 0 24.018736134675446,-6.953439040707552 Z M 81.42073592060642,-12.648347383930712 L 81.3567550216871,-11.650396260591748 A 176.8253089847194 176.8253089847194 0 0 1 111.6604301616976,-7.045477337400772 L 110.95435843023297,-4.129750548069074 L 118.581471292049,-5.883931095538584 L 112.60185913698378,-10.933113056509704 L 111.89578740551914,-8.017386267178006 A 177.8253089847194 177.8253089847194 0 0 0 81.42073592060642,-12.648347383930712"/><text text-anchor="middle" pointer-events="none" font-size="8px" fill="#000000" x="67.89655273392795" y="-9.49969433195065" font-family="sans-serif">FLIES</text></g><g class="relationship" transform="translate(-77.38612887666109 -49.33951178705221) rotate(353.5222504032914)"><path class="outline" fill="#A5ABB6" stroke="none" d="M 10.396609043987748,22.74116356711926 L 11.29757791189017,22.307279828001697 A 65.20976229079261 65.20976229079261 0 0 0 54.00231325937675,57.218250574132306 L 53.75622694045606,58.18749849063255 A 66.20976229079261 66.20976229079261 0 0 1 10.396609043987748,22.74116356711926 Z M 80.74549861503944,59.35392817454439 L 80.58395212059877,58.36706307224624 A 65.20976229079261 65.20976229079261 0 0 0 126.14141331539605,27.270631942282208 L 123.56088544384585,25.740639816762414 L 130.1414829202006,21.50439892958503 L 129.58211714412965,29.310621442975265 L 127.00158927257945,27.78062931745547 A 66.20976229079261 66.20976229079261 0 0 1 80.74549861503944,59.35392817454439"/><text text-anchor="middle" pointer-events="none" font-size="8px" fill="#000000" x="67.2123297053905" y="62.66230548996418" font-family="sans-serif">FLIES</text></g><g class="relationship" transform="translate(-77.38612887666109 -49.33951178705221) rotate(353.5222504032914)"><path class="outline" fill="#A5ABB6" stroke="none" d="M 14.44320574945421,20.411854586953456 L 15.247803529220876,19.818034401379958 A 68.11072745674629 68.11072745674629 0 0 0 54.18744765911333,45.610452685891524 L 53.95456076225598,46.58295651275913 A 69.11072745674629 69.11072745674629 0 0 1 14.44320574945421,20.411854586953456 Z M 80.95637479854814,47.6171700575755 L 80.79855803723329,46.62970164296767 A 68.11072745674629 68.11072745674629 0 0 0 121.59700861251072,23.891382519019533 L 119.32655283037121,21.93050757620721 L 126.55079277609607,18.92046485116272 L 124.62428298869673,26.505882442769302 L 122.35382720655723,24.545007499956977 A 69.11072745674629 69.11072745674629 0 0 1 80.95637479854814,47.6171700575755"/><text text-anchor="middle" pointer-events="none" font-size="8px" fill="#000000" x="67.42356625243414" y="50.932965861217376" font-family="sans-serif">FLIES</text></g><g class="relationship" transform="translate(-77.38612887666109 -49.33951178705221) rotate(353.5222504032914)"><path class="outline" fill="#A5ABB6" stroke="none" d="M 17.9862104268602,17.370844380187897 L 18.666383164631117,16.637792508358068 A 75.54428103510085 75.54428103510085 0 0 0 54.3250540900494,35.14955539439491 L 54.11690478591007,36.127652458691855 A 76.54428103510085 76.54428103510085 0 0 1 17.9862104268602,17.370844380187897 Z M 81.13792760558954,36.99679395928203 L 80.99306526138263,36.00734214073255 A 75.54428103510085 75.54428103510085 0 0 0 117.76767168836636,19.825423235467703 L 115.87269853823538,17.4996810398917 L 123.51023233639887,15.791442917758097 L 120.29430255520766,22.926412829569042 L 118.39932940507668,20.60067063399304 A 76.54428103510085 76.54428103510085 0 0 1 81.13792760558954,36.99679395928203"/><text text-anchor="middle" pointer-events="none" font-size="8px" fill="#000000" x="67.60481467401763" y="40.264889269771956" font-family="sans-serif">FLIES</text></g><g class="relationship" transform="translate(-77.38612887666109 -49.33951178705221) rotate(353.5222504032914)"><path class="outline" fill="#A5ABB6" stroke="none" d="M 20.90208894244944,13.724164012497553 L 21.434121018964774,12.87743981326927 A 91.3768638136713 91.3768638136713 0 0 0 54.41407730269087,25.535674521043248 L 54.242967618423265,26.52092650705994 A 92.3768638136713 92.3768638136713 0 0 1 20.90208894244944,13.724164012497553 Z M 81.28385845506435,27.197632414743836 L 81.16224451005628,26.205054937475907 A 91.3768638136713 91.3768638136713 0 0 0 114.73407353471138,15.212297397490692 L 113.26703270893024,12.595468932441566 L 121.08451342412287,12.225340214842868 L 116.69012796908625,18.701402017556195 L 115.22308714330511,16.084573552507067 A 92.3768638136713 92.3768638136713 0 0 1 81.28385845506435,27.197632414743836"/><text text-anchor="middle" pointer-events="none" font-size="8px" fill="#000000" x="67.7510188603186" y="30.35454567317919" font-family="sans-serif">FLIES</text></g><g class="relationship" transform="translate(-77.38612887666109 -49.33951178705221) rotate(353.5222504032914)"><path class="outline" fill="#A5ABB6" stroke="none" d="M 23.08917320392191,9.598962483481976 L 23.454514228288303,8.668088734837774 A 127.53845389176354 127.53845389176354 0 0 0 54.45851361321655,16.527788471853526 L 54.33626789413934,17.520288337932755 A 128.53845389176354 128.53845389176354 0 0 1 23.08917320392191,9.598962483481976 Z M 81.38754858187608,17.98332120206622 L 81.29934147638053,16.987219045387462 A 127.53845389176354 127.53845389176354 0 0 0 112.55416654126255,10.193194613557827 L 111.55435930763896,7.3646993429954115 L 119.32062337817878,8.3317269468632 L 113.88724285276065,13.964521640974382 L 112.88743561913707,11.136026370411967 A 128.53845389176354 128.53845389176354 0 0 1 81.38754858187608,17.98332120206622"/><text text-anchor="middle" pointer-events="none" font-size="8px" fill="#000000" x="67.85824888499363" y="20.965591291836304" font-family="sans-serif">FLIES</text></g><g class="relationship" transform="translate(-77.38612887666109 -49.33951178705221) rotate(431.544747472866)"><path class="outline" fill="#A5ABB6" stroke="none" d="M 17.324116139070416,-18.031222920256962 L 18.031222920256962,-17.324116139070416 A 73.55620291694322 73.55620291694322 0 0 1 54.295357739422265,-37.16268317187834 L 54.08126355786805,-38.13949619463379 A 74.55620291694322 74.55620291694322 0 0 0 17.324116139070416,-18.031222920256962 Z M 81.09811776708088,-39.044099879880406 L 80.94984298197366,-38.05515367906794 A 73.55620291694322 73.55620291694322 0 0 1 118.45977622644251,-20.686759277359375 L 116.48510400960917,-18.4282930641814 L 124.05864275999669,-16.455601806944557 L 121.09267251555364,-23.698047561596677 L 119.1180002987203,-21.439581348418702 A 74.55620291694322 74.55620291694322 0 0 0 81.09811776708088,-39.044099879880406"/><text text-anchor="middle" pointer-events="none" font-size="8px" fill="#000000" x="67.56508225787144" y="-36.32675157583368" font-family="sans-serif">FLIES</text></g><g class="relationship" transform="translate(-77.38612887666109 -49.33951178705221) rotate(353.5222504032914)"><path class="outline" fill="#A5ABB6" stroke="none" d="M 24.471206027250748,5.139073415689509 L 24.657117634413662,4.15650694245622 A 244.16133385916217 244.16133385916217 0 0 0 54.466210348654585,7.915297923386419 L 54.40238642934578,8.913259098645284 A 245.16133385916217 245.16133385916217 0 0 1 24.471206027250748,5.139073415689509 Z M 81.44281713038345,9.14821973543431 L 81.39634457563011,8.149300168274522 A 244.16133385916217 244.16133385916217 0 0 0 111.26625338935055,4.909074011883296 L 110.75982541668171,1.9521278323767226 L 118.25019913697737,4.220233105573746 L 111.94149068624236,8.85166891789206 L 111.43506271357352,5.894722738385487 A 245.16133385916217 245.16133385916217 0 0 1 81.44281713038345,9.14821973543431"/><text text-anchor="middle" pointer-events="none" font-size="8px" fill="#000000" x="67.92370422741044" y="11.903864307779827" font-family="sans-serif">FLIES</text></g><g class="relationship" transform="translate(-77.38612887666109 -49.33951178705221) rotate(353.5222504032914)"><path class="outline" fill="#A5ABB6" stroke="none" d="M 25 0.5 L 54.445708649766104 0.5 L 54.445708649766104 -0.5 L 25 -0.5 Z M 81.4457086497661 0.5 L 110.89141729953221 0.5 L 110.89141729953221 3.5 L 117.89141729953221 0 L 110.89141729953221 -3.5 L 110.89141729953221 -0.5 L 81.4457086497661 -0.5 Z"/><text text-anchor="middle" pointer-events="none" font-size="8px" fill="#000000" x="67.9457086497661" y="3" font-family="sans-serif">FLIES</text></g><g class="relationship" transform="translate(-77.38612887666109 -49.33951178705221) rotate(353.5222504032914)"><path class="outline" fill="#A5ABB6" stroke="none" d="M 24.471206027250748,-5.139073415689509 L 24.657117634413662,-4.15650694245622 A 244.16133385916217 244.16133385916217 0 0 1 54.46621034865464,-7.915297923386419 L 54.40238642934584,-8.913259098645284 A 245.16133385916217 245.16133385916217 0 0 0 24.471206027250748,-5.139073415689509 Z M 81.44281713038345,-9.14821973543431 L 81.39634457563011,-8.149300168274522 A 244.16133385916217 244.16133385916217 0 0 1 111.26625338935055,-4.909074011883296 L 110.75982541668171,-1.9521278323767226 L 118.25019913697737,-4.220233105573746 L 111.94149068624236,-8.85166891789206 L 111.43506271357352,-5.894722738385487 A 245.16133385916217 245.16133385916217 0 0 0 81.44281713038345,-9.14821973543431"/><text text-anchor="middle" pointer-events="none" font-size="8px" fill="#000000" x="67.92370422741047" y="-5.903864307779827" font-family="sans-serif">FLIES</text></g><g class="relationship" transform="translate(-77.38612887666109 -49.33951178705221) rotate(353.5222504032914)"><path class="outline" fill="#A5ABB6" stroke="none" d="M 23.08917320392191,-9.598962483481976 L 23.454514228288303,-8.668088734837774 A 127.53845389176354 127.53845389176354 0 0 1 54.45851361321655,-16.527788471853526 L 54.33626789413934,-17.520288337932755 A 128.53845389176354 128.53845389176354 0 0 0 23.08917320392191,-9.598962483481976 Z M 81.38754858187605,-17.98332120206622 L 81.2993414763805,-16.987219045387462 A 127.53845389176354 127.53845389176354 0 0 1 112.55416654126255,-10.193194613557827 L 111.55435930763896,-7.3646993429954115 L 119.32062337817878,-8.3317269468632 L 113.88724285276065,-13.964521640974382 L 112.88743561913707,-11.136026370411967 A 128.53845389176354 128.53845389176354 0 0 0 81.38754858187605,-17.98332120206622"/><text text-anchor="middle" pointer-events="none" font-size="8px" fill="#000000" x="67.85824888499361" y="-14.965591291836304" font-family="sans-serif">FLIES</text></g><g class="relationship" transform="translate(-77.38612887666109 -49.33951178705221) rotate(353.5222504032914)"><path class="outline" fill="#A5ABB6" stroke="none" d="M 20.90208894244944,-13.724164012497553 L 21.434121018964774,-12.87743981326927 A 91.3768638136713 91.3768638136713 0 0 1 54.41407730269087,-25.535674521043248 L 54.242967618423265,-26.52092650705994 A 92.3768638136713 92.3768638136713 0 0 0 20.90208894244944,-13.724164012497553 Z M 81.28385845506432,-27.197632414743836 L 81.16224451005627,-26.205054937475907 A 91.3768638136713 91.3768638136713 0 0 1 114.73407353471138,-15.212297397490692 L 113.26703270893024,-12.595468932441566 L 121.08451342412287,-12.225340214842868 L 116.69012796908625,-18.701402017556195 L 115.22308714330511,-16.084573552507067 A 92.3768638136713 92.3768638136713 0 0 0 81.28385845506432,-27.197632414743836"/><text text-anchor="middle" pointer-events="none" font-size="8px" fill="#000000" x="67.75101886031858" y="-24.35454567317919" font-family="sans-serif">FLIES</text></g><g class="relationship" transform="translate(-77.38612887666109 -49.33951178705221) rotate(353.5222504032914)"><path class="outline" fill="#A5ABB6" stroke="none" d="M 17.9862104268602,-17.370844380187897 L 18.666383164631117,-16.637792508358068 A 75.54428103510085 75.54428103510085 0 0 1 54.3250540900494,-35.14955539439491 L 54.116904785910066,-36.127652458691855 A 76.54428103510085 76.54428103510085 0 0 0 17.9862104268602,-17.370844380187897 Z M 81.13792760558952,-36.99679395928203 L 80.9930652613826,-36.00734214073255 A 75.54428103510085 75.54428103510085 0 0 1 117.76767168836636,-19.825423235467703 L 115.87269853823538,-17.4996810398917 L 123.51023233639887,-15.791442917758097 L 120.29430255520766,-22.926412829569042 L 118.39932940507668,-20.60067063399304 A 76.54428103510085 76.54428103510085 0 0 0 81.13792760558952,-36.99679395928203"/><text text-anchor="middle" pointer-events="none" font-size="8px" fill="#000000" x="67.60481467401763" y="-34.264889269771956" font-family="sans-serif">FLIES</text></g><g class="relationship" transform="translate(-77.38612887666109 -49.33951178705221) rotate(353.5222504032914)"><path class="outline" fill="#A5ABB6" stroke="none" d="M 14.44320574945421,-20.411854586953456 L 15.247803529220876,-19.818034401379958 A 68.11072745674629 68.11072745674629 0 0 1 54.187447659113325,-45.610452685891524 L 53.95456076225598,-46.58295651275913 A 69.11072745674629 69.11072745674629 0 0 0 14.44320574945421,-20.411854586953456 Z M 80.95637479854813,-47.6171700575755 L 80.79855803723328,-46.62970164296767 A 68.11072745674629 68.11072745674629 0 0 1 121.59700861251072,-23.891382519019533 L 119.32655283037121,-21.93050757620721 L 126.55079277609607,-18.92046485116272 L 124.62428298869673,-26.505882442769302 L 122.35382720655723,-24.545007499956977 A 69.11072745674629 69.11072745674629 0 0 0 80.95637479854813,-47.6171700575755"/><text text-anchor="middle" pointer-events="none" font-size="8px" fill="#000000" x="67.42356625243413" y="-44.932965861217376" font-family="sans-serif">FLIES</text></g><g class="relationship" transform="translate(-77.38612887666109 -49.33951178705221) rotate(353.5222504032914)"><path class="outline" fill="#A5ABB6" stroke="none" d="M 10.396609043987748,-22.74116356711926 L 11.29757791189017,-22.307279828001697 A 65.20976229079261 65.20976229079261 0 0 1 54.002313259376734,-57.218250574132306 L 53.75622694045604,-58.18749849063255 A 66.20976229079261 66.20976229079261 0 0 0 10.396609043987748,-22.74116356711926 Z M 80.74549861503942,-59.35392817454439 L 80.58395212059875,-58.36706307224624 A 65.20976229079261 65.20976229079261 0 0 1 126.14141331539605,-27.270631942282208 L 123.56088544384585,-25.740639816762414 L 130.1414829202006,-21.50439892958503 L 129.58211714412965,-29.310621442975265 L 127.00158927257945,-27.78062931745547 A 66.20976229079261 66.20976229079261 0 0 0 80.74549861503942,-59.35392817454439"/><text text-anchor="middle" pointer-events="none" font-size="8px" fill="#000000" x="67.21232970539049" y="-56.66230548996418" font-family="sans-serif">FLIES</text></g><g class="relationship" transform="translate(-77.38612887666109 -49.33951178705221) rotate(431.544747472866)"><path class="outline" fill="#A5ABB6" stroke="none" d="M 5.987513214418485,-24.277555179777966 L 6.953439040707552,-24.018736134675446 A 65.31544352927733 65.31544352927733 0 0 1 53.76914196855754,-70.36935736148985 L 53.51997929043365,-71.33781900751933 A 66.31544352927733 66.31544352927733 0 0 0 5.987513214418485,-24.277555179777966 Z M 80.5052803296268,-72.59885587511056 L 80.34751967883892,-71.61137849457822 A 65.31544352927733 65.31544352927733 0 0 1 131.28173843635574,-29.828660915396416 L 128.46899971824175,-28.785348448480313 L 134.18492397884563,-23.43948931761649 L 135.03205672717436,-31.219744204617882 L 132.21931800906037,-30.17643173770178 A 66.31544352927733 66.31544352927733 0 0 0 80.5052803296268,-72.59885587511056"/><text text-anchor="middle" pointer-events="none" font-size="8px" fill="#000000" x="66.97107624398255" y="-69.85755449584116" font-family="sans-serif">FLIES</text></g><g class="relationship" transform="translate(-77.38612887666109 -49.33951178705221) rotate(353.5222504032914)"><path class="outline" fill="#A5ABB6" stroke="none" d="M 5.987513214418485,-24.277555179777966 L 6.953439040707552,-24.018736134675446 A 65.3218941467885 65.3218941467885 0 0 1 53.775286383153805,-70.37432625427125 L 53.526146987417874,-71.34279389001978 A 66.3218941467885 66.3218941467885 0 0 0 5.987513214418485,-24.277555179777966 Z M 80.51147024562505,-72.60372527876453 L 80.35372555571527,-71.61624534843415 A 65.3218941467885 65.3218941467885 0 0 1 131.29419616759623,-29.828752270535492 L 128.48144923113608,-28.785461960298683 L 134.19733138089214,-23.4395578038346 L 135.04452541620975,-31.219806017517904 L 132.2317784797496,-30.176515707281094 A 66.3218941467885 66.3218941467885 0 0 0 80.51147024562505,-72.60372527876453"/><text text-anchor="middle" pointer-events="none" font-size="8px" fill="#000000" x="66.97726491517447" y="-69.862340640029" font-family="sans-serif">FLIES</text></g></g><g class="layer nodes"><g class="node" aria-label="graph-node22" style="touch-action: none;" transform="translate(-32.155729864163526,86.1915740809637)"><circle class="outline" cx="0" cy="0" r="25" fill="#ECB5C9" stroke="#da7298" stroke-width="2px"/><text class="caption" text-anchor="middle" pointer-events="none" x="0" y="5" font-size="10px" fill="#2A2C34" font-family="sans-serif"> MSN</text></g><g class="node" aria-label="graph-node69" style="touch-action: none;" transform="translate(64.59303280712146,-65.46014407736232)"><circle class="outline" cx="0" cy="0" r="25" fill="#ECB5C9" stroke="#da7298" stroke-width="2px"/><text class="caption" text-anchor="middle" pointer-events="none" x="0" y="5" font-size="10px" fill="#2A2C34" font-family="sans-serif"> GRR</text></g><g class="node" aria-label="graph-node8" style="touch-action: none;" transform="translate(-77.38612887666109,-49.33951178705221)"><circle class="outline" cx="0" cy="0" r="25" fill="#ECB5C9" stroke="#da7298" stroke-width="2px"/><text class="caption" text-anchor="middle" pointer-events="none" x="0" y="5" font-size="10px" fill="#2A2C34" font-family="sans-serif"> ORD</text></g></g></svg>