<svg xmlns="http://www.w3.org/2000/svg" width="529.9679565429688" height="391.9683532714844" viewBox="-247.93101501464844 -205.67152404785156 529.9679565429688 391.9683532714844"><title>Neo4j Graph Visualization</title><desc>Created using Neo4j (http://www.neo4j.com/)</desc><g class="layer relationships"><g class="relationship" transform="translate(-46.56527319743249 -51.83835912553543) rotate(368.2413012776728)"><path class="outline" fill="#A5ABB6" stroke="none" d="M 24.018736134675446,-6.953439040707552 L 24.277555179777966,-5.987513214418485 A 182.20980123449942 182.20980123449942 0 0 1 60.30213351478093,-11.855621552630396 L 60.24102380304539,-12.853752607718661 A 183.20980123449942 183.20980123449942 0 0 0 24.018736134675446,-6.953439040707552 Z M 78.28170886298582,-13.068255081187573 L 78.24434848775887,-12.068953223707638 A 182.20980123449942 182.20980123449942 0 0 1 114.39826570714189,-7.059042108951522 L 113.69092707652277,-4.143622403037145 L 121.31880145937862,-5.894488588492649 L 115.34138388130071,-10.946268383504027 L 114.6340452506816,-8.030848677589647 A 183.20980123449942 183.20980123449942 0 0 0 78.28170886298582,-13.068255081187573"/><text text-anchor="middle" pointer-events="none" font-size="8px" fill="#000000" x="69.26466882897691" y="-9.683248121705105" font-family="sans-serif">trek</text></g><g class="relationship" transform="translate(97.54496044825963 -30.965708161157462) rotate(361.6252188125012)"><path class="outline" fill="#A5ABB6" stroke="none" d="M 21.40063509461097,-12.933012701892217 L 21.90063509461097,-12.06698729810778 A 109.1882635325686 109.1882635325686 0 0 1 65.19184655905171,-26.108838808411946 L 65.08832883712665,-27.103466417744926 A 110.1882635325686 110.1882635325686 0 0 0 21.40063509461097,-12.933012701892217 Z M 83.1458634496953,-27.494523530937798 L 83.08550224265227,-26.496346930989517 A 109.1882635325686 109.1882635325686 0 0 1 126.94402692481378,-14.341825278510333 L 125.55790926623767,-11.681246800700766 L 133.38306298279878,-11.550980488134329 L 128.79218380291528,-17.88926324892309 L 127.40606614433915,-15.228684771113523 A 110.1882635325686 110.1882635325686 0 0 0 83.1458634496953,-27.494523530937798"/><text text-anchor="middle" pointer-events="none" font-size="8px" fill="#000000" x="74.11989556030319" y="-24.16972851754791" font-family="sans-serif">trek</text></g><g class="relationship" transform="translate(253.03693557857315 -26.553929783993688) rotate(220.10074389695615)"><path class="outline" fill="#A5ABB6" stroke="none" d="M 21.40063509461097,12.933012701892217 L 21.90063509461097,12.06698729810778 A 97.16238624497706 97.16238624497706 0 0 0 59.28313847465513,24.436754838792126 L 59.16788101572232,25.430090491107265 A 98.16238624497706 98.16238624497706 0 0 1 21.40063509461097,12.933012701892217 Z M 77.22950933598479,25.852086394841507 L 77.16076934934625,24.85445178525896 A 97.16238624497706 97.16238624497706 0 0 0 115.08018640130726,14.244055072174902 L 113.70316099339598,11.57875939890209 L 121.5287138735957,11.47521173259404 L 116.9162202785223,17.79778263653865 L 115.53919487061103,15.132486963265837 A 98.16238624497706 98.16238624497706 0 0 1 77.22950933598479,25.852086394841507"/><text text-anchor="middle" pointer-events="none" font-size="8px" fill="#000000" x="68.20064503892134" y="28.55763336273759" transform="rotate(180 68.20064503892134 25.55763336273759)" font-family="sans-serif">trek</text></g><g class="relationship" transform="translate(143.0887094370012 -119.14137296184899) rotate(471.95868845965106)"><path class="outline" fill="#A5ABB6" stroke="none" d="M 25 0.5 L 89.45215177321906 0.5 L 89.45215177321906 -0.5 L 25 -0.5 Z M 107.45215177321906 0.5 L 171.90430354643811 0.5 L 171.90430354643811 3.5 L 178.90430354643811 0 L 171.90430354643811 -3.5 L 171.90430354643811 -0.5 L 107.45215177321906 -0.5 Z"/><text text-anchor="middle" pointer-events="none" font-size="8px" fill="#000000" x="98.45215177321906" y="3" transform="rotate(180 98.45215177321906 0)" font-family="sans-serif">trek</text></g><g class="relationship" transform="translate(253.03693557857315 -26.553929783993688) rotate(220.10074389695615)"><path class="outline" fill="#A5ABB6" stroke="none" d="M 25 0.5 L 57.86975557543457 0.5 L 57.86975557543457 -0.5 L 25 -0.5 Z M 78.86975557543457 0.5 L 111.73951115086913 0.5 L 111.73951115086913 3.5 L 118.73951115086913 0 L 111.73951115086913 -3.5 L 111.73951115086913 -0.5 L 78.86975557543457 -0.5 Z"/><text text-anchor="middle" pointer-events="none" font-size="8px" fill="#000000" x="68.36975557543457" y="3" transform="rotate(180 68.36975557543457 0)" font-family="sans-serif">road</text></g><g class="relationship" transform="translate(253.03693557857315 -26.553929783993688) rotate(220.10074389695615)"><path class="outline" fill="#A5ABB6" stroke="none" d="M 21.40063509461097,-12.933012701892217 L 21.90063509461097,-12.06698729810778 A 97.16238624497706 97.16238624497706 0 0 1 47.0553157065333,-22.21785113947466 L 46.81420890156558,-23.188349727107976 A 98.16238624497706 98.16238624497706 0 0 0 21.40063509461097,-12.933012701892217 Z M 89.67439730139719,-24.189744707521598 L 89.47887873447483,-23.209044707527397 A 97.16238624497706 97.16238624497706 0 0 1 115.08018640130726,-14.244055072174902 L 113.70316099339598,-11.57875939890209 L 121.5287138735957,-11.47521173259404 L 116.9162202785223,-17.79778263653865 L 115.53919487061103,-15.132486963265837 A 98.16238624497706 98.16238624497706 0 0 0 89.67439730139719,-24.189744707521598"/><text text-anchor="middle" pointer-events="none" font-size="8px" fill="#000000" x="68.20064503892131" y="-22.55763336273759" transform="rotate(180 68.20064503892131 -25.55763336273759)" font-family="sans-serif">twowheeler</text></g><g class="relationship" transform="translate(97.54496044825963 -30.965708161157462) rotate(361.6252188125012)"><path class="outline" fill="#A5ABB6" stroke="none" d="M 25 0.5 L 63.777275148939296 0.5 L 63.777275148939296 -0.5 L 25 -0.5 Z M 84.7772751489393 0.5 L 123.55455029787859 0.5 L 123.55455029787859 3.5 L 130.5545502978786 0 L 123.55455029787859 -3.5 L 123.55455029787859 -0.5 L 84.7772751489393 -0.5 Z"/><text text-anchor="middle" pointer-events="none" font-size="8px" fill="#000000" x="74.2772751489393" y="3" font-family="sans-serif">road</text></g><g class="relationship" transform="translate(97.54496044825963 -30.965708161157462) rotate(361.6252188125012)"><path class="outline" fill="#A5ABB6" stroke="none" d="M 21.40063509461097,12.933012701892217 L 21.90063509461097,12.06698729810778 A 109.1882635325686 109.1882635325686 0 0 0 52.915759830971396,24.119124647775266 L 52.69981164874858,25.095529472934714 A 110.1882635325686 110.1882635325686 0 0 1 21.40063509461097,12.933012701892217 Z M 95.60969360284493,26.024793346682813 L 95.43621844197808,25.03995510181099 A 109.1882635325686 109.1882635325686 0 0 0 126.94402692481378,14.341825278510333 L 125.55790926623767,11.681246800700766 L 133.38306298279878,11.550980488134329 L 128.79218380291528,17.88926324892309 L 127.40606614433915,15.228684771113523 A 110.1882635325686 110.1882635325686 0 0 1 95.60969360284493,26.024793346682813"/><text text-anchor="middle" pointer-events="none" font-size="8px" fill="#000000" x="74.11989556030318" y="30.16972851754791" font-family="sans-serif">twowheeler</text></g><g class="relationship" transform="translate(-46.56527319743249 -51.83835912553543) rotate(368.2413012776728)"><path class="outline" fill="#A5ABB6" stroke="none" d="M 24.018736134675446,6.953439040707552 L 24.277555179777966,5.987513214418485 A 182.20980123449942 182.20980123449942 0 0 0 58.80942614219649,11.758079914736214 L 58.74012418524433,12.755675643858297 A 183.20980123449942 183.20980123449942 0 0 1 24.018736134675446,6.953439040707552 Z M 79.78451610184804,13.005891980087398 L 79.73895306918283,12.006930514336915 A 182.20980123449942 182.20980123449942 0 0 0 114.39826570714189,7.059042108951522 L 113.69092707652277,4.143622403037145 L 121.31880145937862,5.894488588492649 L 115.34138388130071,10.946268383504027 L 114.6340452506816,8.030848677589647 A 183.20980123449942 183.20980123449942 0 0 1 79.78451610184804,13.005891980087398"/><text text-anchor="middle" pointer-events="none" font-size="8px" fill="#000000" x="69.26466882897692" y="15.683248121705105" font-family="sans-serif">road</text></g><g class="relationship" transform="translate(-46.56527319743249 -51.83835912553543) rotate(289.5833393265545)"><path class="outline" fill="#A5ABB6" stroke="none" d="M 21.40063509461097,12.933012701892217 L 21.90063509461097,12.06698729810778 A 85.68483510236094 85.68483510236094 0 0 0 33.49116083313696,17.644010988222178 L 33.12643011065474,18.575124031884215 A 86.68483510236094 86.68483510236094 0 0 1 21.40063509461097,12.933012701892217 Z M 92.2443341891539,20.068435019179375 L 91.9270782180156,19.120095075500373 A 85.68483510236094 85.68483510236094 0 0 0 103.78439266031184,14.135360944972954 L 102.41747610029695,11.464866773858347 L 110.24336515291506,11.39097133345734 L 105.60694807366501,17.69601983979243 L 104.24003151365012,15.025525668677824 A 86.68483510236094 86.68483510236094 0 0 1 92.2443341891539,20.068435019179375"/><text text-anchor="middle" pointer-events="none" font-size="8px" fill="#000000" x="62.56672851273322" y="27.019096025928846" font-family="sans-serif">PublicTransport</text></g><g class="relationship" transform="translate(-2.1550820134336766 -176.6715197256019) rotate(381.60820507378105)"><path class="outline" fill="#A5ABB6" stroke="none" d="M 25 0.5 L 65.61126157852716 0.5 L 65.61126157852716 -0.5 L 25 -0.5 Z M 83.61126157852716 0.5 L 124.22252315705433 0.5 L 124.22252315705433 3.5 L 131.22252315705433 0 L 124.22252315705433 -3.5 L 124.22252315705433 -0.5 L 83.61126157852716 -0.5 Z"/><text text-anchor="middle" pointer-events="none" font-size="8px" fill="#000000" x="74.61126157852716" y="3" font-family="sans-serif">trek</text></g><g class="relationship" transform="translate(-2.1550820134336766 -176.6715197256019) rotate(510.77904694641484)"><path class="outline" fill="#A5ABB6" stroke="none" d="M 24.018736134675446,-6.953439040707552 L 24.277555179777966,-5.987513214418485 A 251.14188371480955 251.14188371480955 0 0 1 77.87337811144361,-14.285890171606923 L 77.8279676071185,-15.284858582567438 A 252.14188371480955 252.14188371480955 0 0 0 24.018736134675446,-6.953439040707552 Z M 95.8590464101655,-15.459062513988272 L 95.83294527771932,-14.45940320658147 A 251.14188371480955 251.14188371480955 0 0 1 149.5790952684746,-7.198090858438865 L 148.85877052612068,-4.285852498422161 L 156.49437223223921,-6.002706186282543 L 150.5395282582798,-11.081075338461138 L 149.8192035159259,-8.168836978444434 A 252.14188371480955 252.14188371480955 0 0 0 95.8590464101655,-15.459062513988272"/><text text-anchor="middle" pointer-events="none" font-size="8px" fill="#000000" x="86.84677966888222" y="-12.033221954920037" transform="rotate(180 86.84677966888222 -15.033221954920037)" font-family="sans-serif">trek</text></g><g class="relationship" transform="translate(-159.91485698082877 -88.42683323741517) rotate(422.5638005790878)"><path class="outline" fill="#A5ABB6" stroke="none" d="M 24.018736134675446,-6.953439040707552 L 24.277555179777966,-5.987513214418485 A 206.3516193811745 206.3516193811745 0 0 1 66.44222606397797,-12.712257741257076 L 66.38774111138535,-13.710772333008748 A 207.3516193811745 207.3516193811745 0 0 0 24.018736134675446,-6.953439040707552 Z M 84.42446638264208,-13.909229357200587 L 84.39196515530958,-12.909757661642459 A 206.3516193811745 206.3516193811745 0 0 1 126.69439398918844,-7.1143996503748745 L 125.9818852644284,-4.200239167981904 L 133.61285323556538,-5.9375727063336265 L 127.64440562220182,-10.999946960232169 L 126.93189689744177,-8.085786477839198 A 207.3516193811745 207.3516193811745 0 0 0 84.42446638264208,-13.909229357200587"/><text text-anchor="middle" pointer-events="none" font-size="8px" fill="#000000" x="75.40944585497483" y="-10.506254059789029" font-family="sans-serif">trek</text></g><g class="relationship" transform="translate(-87.16189693414785 51.711080494734496) rotate(366.76169975662646)"><path class="outline" fill="#A5ABB6" stroke="none" d="M 24.018736134675446,6.953439040707552 L 24.277555179777966,5.987513214418485 A 200.82327680948396 200.82327680948396 0 0 0 65.03464415844469,12.516735867180813 L 64.97877513799162,13.51517397370202 A 201.82327680948396 201.82327680948396 0 0 1 24.018736134675446,6.953439040707552 Z M 83.01633952219939,13.71709320907354 L 82.98283547989502,12.71765462709402 A 200.82327680948396 200.82327680948396 0 0 0 123.87587367039754,7.10245400606583 L 123.1644805912336,4.188020975969296 L 130.79478292048344,5.928275659699414 L 124.82439777594945,10.988364712861209 L 124.11300469678551,8.073931682764675 A 201.82327680948396 201.82327680948396 0 0 1 83.01633952219939,13.71709320907354"/><text text-anchor="middle" pointer-events="none" font-size="8px" fill="#000000" x="74.00089712988569" y="16.31778730637467" font-family="sans-serif">trek</text></g><g class="relationship" transform="translate(-87.16189693414785 51.711080494734496) rotate(366.76169975662646)"><path class="outline" fill="#A5ABB6" stroke="none" d="M 24.018736134675446,-6.953439040707552 L 24.277555179777966,-5.987513214418485 A 200.82327680948396 200.82327680948396 0 0 1 52.61478092494289,-11.43419009726091 L 52.49706716502128,-12.42723766446258 A 201.82327680948396 201.82327680948396 0 0 0 24.018736134675446,-6.953439040707552 Z M 95.51927410073633,-12.908844323954924 L 95.42382014474416,-11.913410477692167 A 200.82327680948396 200.82327680948396 0 0 1 123.87587367039754,-7.10245400606583 L 123.1644805912336,-4.188020975969296 L 130.79478292048344,-5.928275659699414 L 124.82439777594945,-10.988364712861209 L 124.11300469678551,-8.073931682764675 A 201.82327680948396 201.82327680948396 0 0 0 95.51927410073633,-12.908844323954924"/><text text-anchor="middle" pointer-events="none" font-size="8px" fill="#000000" x="74.00089712988563" y="-10.317787306374669" font-family="sans-serif">twowheeler</text></g><g class="relationship" transform="translate(-159.91485698082877 -88.42683323741517) rotate(422.5638005790878)"><path class="outline" fill="#A5ABB6" stroke="none" d="M 24.018736134675446,6.953439040707552 L 24.277555179777966,5.987513214418485 A 206.3516193811745 206.3516193811745 0 0 0 54.01906269301565,11.657156410860324 L 53.90437388349078,12.650557879034068 A 207.3516193811745 207.3516193811745 0 0 1 24.018736134675446,6.953439040707552 Z M 96.92813951591167,13.123945834360086 L 96.83533650183361,12.128261345890962 A 206.3516193811745 206.3516193811745 0 0 0 126.69439398918844,7.1143996503748745 L 125.9818852644284,4.200239167981904 L 133.61285323556538,5.9375727063336265 L 127.64440562220182,10.999946960232169 L 126.93189689744177,8.085786477839198 A 207.3516193811745 207.3516193811745 0 0 1 96.92813951591167,13.123945834360086"/><text text-anchor="middle" pointer-events="none" font-size="8px" fill="#000000" x="75.4094458549749" y="16.50625405978903" font-family="sans-serif">twowheeler</text></g><g class="relationship" transform="translate(-2.1550820134336766 -176.6715197256019) rotate(510.77904694641484)"><path class="outline" fill="#A5ABB6" stroke="none" d="M 24.018736134675446,6.953439040707552 L 24.277555179777966,5.987513214418485 A 251.14188371480955 251.14188371480955 0 0 0 65.4302759735863,13.410158773705064 L 65.33531936427144,14.405640186061646 A 252.14188371480955 252.14188371480955 0 0 1 24.018736134675446,6.953439040707552 Z M 108.36634994404214,14.82137652563219 L 108.29064458341456,13.824246294231955 A 251.14188371480955 251.14188371480955 0 0 0 149.5790952684746,7.198090858438865 L 148.85877052612068,4.285852498422161 L 156.49437223223921,6.002706186282543 L 150.5395282582798,11.081075338461138 L 149.8192035159259,8.168836978444434 A 252.14188371480955 252.14188371480955 0 0 1 108.36634994404214,14.82137652563219"/><text text-anchor="middle" pointer-events="none" font-size="8px" fill="#000000" x="86.84677966888232" y="18.033221954920037" transform="rotate(180 86.84677966888232 15.033221954920037)" font-family="sans-serif">twowheeler</text></g><g class="relationship" transform="translate(-46.56527319743249 -51.83835912553543) rotate(289.5833393265545)"><path class="outline" fill="#A5ABB6" stroke="none" d="M 25 0.5 L 52.24874162276842 0.5 L 52.24874162276842 -0.5 L 25 -0.5 Z M 73.24874162276842 0.5 L 100.49748324553684 0.5 L 100.49748324553684 3.5 L 107.49748324553684 0 L 100.49748324553684 -3.5 L 100.49748324553684 -0.5 L 73.24874162276842 -0.5 Z"/><text text-anchor="middle" pointer-events="none" font-size="8px" fill="#000000" x="62.74874162276842" y="3" font-family="sans-serif">road</text></g><g class="relationship" transform="translate(-46.56527319743249 -51.83835912553543) rotate(289.5833393265545)"><path class="outline" fill="#A5ABB6" stroke="none" d="M 21.40063509461097,-12.933012701892217 L 21.90063509461097,-12.06698729810778 A 85.68483510236094 85.68483510236094 0 0 1 53.66245628861983,-22.82709720703491 L 53.53313823200065,-23.818700373746395 A 86.68483510236094 86.68483510236094 0 0 0 21.40063509461097,-12.933012701892217 Z M 71.59891565751711,-24.275039689966576 L 71.51982612584031,-23.278172173202606 A 85.68483510236094 85.68483510236094 0 0 1 103.78439266031184,-14.135360944972954 L 102.41747610029695,-11.464866773858347 L 110.24336515291506,-11.39097133345734 L 105.60694807366501,-17.69601983979243 L 104.24003151365012,-15.025525668677824 A 86.68483510236094 86.68483510236094 0 0 0 71.59891565751711,-24.275039689966576"/><text text-anchor="middle" pointer-events="none" font-size="8px" fill="#000000" x="62.56672851273324" y="-21.019096025928846" font-family="sans-serif">trek</text></g><g class="relationship" transform="translate(-2.1550820134336766 -176.6715197256019) rotate(415.6178895864829)"><path class="outline" fill="#A5ABB6" stroke="none" d="M 25 0.5 L 75.77553736811353 0.5 L 75.77553736811353 -0.5 L 25 -0.5 Z M 93.77553736811353 0.5 L 144.55107473622706 0.5 L 144.55107473622706 3.5 L 151.55107473622706 0 L 144.55107473622706 -3.5 L 144.55107473622706 -0.5 L 93.77553736811353 -0.5 Z"/><text text-anchor="middle" pointer-events="none" font-size="8px" fill="#000000" x="84.77553736811353" y="3" font-family="sans-serif">trek</text></g><g class="relationship" transform="translate(-159.91485698082877 -88.42683323741517) rotate(469.92816572627487)"><path class="outline" fill="#A5ABB6" stroke="none" d="M 24.018736134675446,-6.953439040707552 L 24.277555179777966,-5.987513214418485 A 236.24376288500488 236.24376288500488 0 0 1 74.06637581976521,-13.764251594749254 L 74.01830866936656,-14.76309570123064 A 237.24376288500488 237.24376288500488 0 0 0 24.018736134675446,-6.953439040707552 Z M 92.05106568751766,-14.944689792688166 L 92.02312343392244,-13.945080253686058 A 236.24376288500488 236.24376288500488 0 0 1 141.95845824288523,-7.172587501846639 L 141.24051525148482,-4.259761063299533 L 148.87471043139521,-5.982858261670177 L 142.91571556475245,-11.056356086576113 L 142.19777257335204,-8.143529648029007 A 237.24376288500488 237.24376288500488 0 0 0 92.05106568751766,-14.944689792688166"/><text text-anchor="middle" pointer-events="none" font-size="8px" fill="#000000" x="83.03799597202824" y="-11.525321094198802" transform="rotate(180 83.03799597202824 -14.525321094198802)" font-family="sans-serif">trek</text></g><g class="relationship" transform="translate(-218.93101263940108 74.35343192781485) rotate(350.2498833179245)"><path class="outline" fill="#A5ABB6" stroke="none" d="M 21.40063509461097,12.933012701892217 L 21.90063509461097,12.06698729810778 A 86.91476515157619 86.91476515157619 0 0 0 54.26373994347656,23.000382670586063 L 54.136094454156364,23.992202527745718 A 87.91476515157619 87.91476515157619 0 0 1 21.40063509461097,12.933012701892217 Z M 72.20142251009175,24.444603197189508 L 72.1235811505898,23.447637439126126 A 86.91476515157619 86.91476515157619 0 0 0 104.9933754894383,14.147835830951719 L 103.62529869316842,11.477935855389351 L 111.45115489846214,11.400639968915716 L 106.81747788446481,17.707702465034874 L 105.44940108819493,15.037802489472506 A 87.91476515157619 87.91476515157619 0 0 1 72.20142251009175,24.444603197189508"/><text text-anchor="middle" pointer-events="none" font-size="8px" fill="#000000" x="63.16962099898874" y="27.183960716010404" font-family="sans-serif">trek</text></g><g class="relationship" transform="translate(-218.93101263940108 74.35343192781485) rotate(350.2498833179245)"><path class="outline" fill="#A5ABB6" stroke="none" d="M 25 0.5 L 52.85016068074094 0.5 L 52.85016068074094 -0.5 L 25 -0.5 Z M 73.85016068074094 0.5 L 101.70032136148188 0.5 L 101.70032136148188 3.5 L 108.70032136148188 0 L 101.70032136148188 -3.5 L 101.70032136148188 -0.5 L 73.85016068074094 -0.5 Z"/><text text-anchor="middle" pointer-events="none" font-size="8px" fill="#000000" x="63.35016068074094" y="3" font-family="sans-serif">road</text></g><g class="relationship" transform="translate(-218.93101263940108 74.35343192781485) rotate(350.2498833179245)"><path class="outline" fill="#A5ABB6" stroke="none" d="M 21.40063509461097,-12.933012701892217 L 21.90063509461097,-12.06698729810778 A 86.91476515157619 86.91476515157619 0 0 1 42.09210660836932,-20.539495599083395 L 41.82442008788624,-21.503001658613726 A 87.91476515157619 87.91476515157619 0 0 0 21.40063509461097,-12.933012701892217 Z M 84.6222580181236,-22.574765784370868 L 84.40313395728455,-21.599068779168235 A 86.91476515157619 86.91476515157619 0 0 1 104.9933754894383,-14.147835830951719 L 103.62529869316842,-11.477935855389351 L 111.45115489846214,-11.400639968915716 L 106.81747788446481,-17.707702465034874 L 105.44940108819493,-15.037802489472506 A 87.91476515157619 87.91476515157619 0 0 0 84.6222580181236,-22.574765784370868"/><text text-anchor="middle" pointer-events="none" font-size="8px" fill="#000000" x="63.16962099898876" y="-21.183960716010404" font-family="sans-serif">twowheeler</text></g><g class="relationship" transform="translate(-159.91485698082877 -88.42683323741517) rotate(469.92816572627487)"><path class="outline" fill="#A5ABB6" stroke="none" d="M 24.018736134675446,6.953439040707552 L 24.277555179777966,5.987513214418485 A 236.24376288500488 236.24376288500488 0 0 0 61.62880687856672,12.836115584805839 L 61.52809254379668,13.831030969535533 A 237.24376288500488 237.24376288500488 0 0 1 24.018736134675446,6.953439040707552 Z M 104.5575191310581,14.264347384723067 L 104.47686125159582,13.26760553926826 A 236.24376288500488 236.24376288500488 0 0 0 141.95845824288523,7.172587501846639 L 141.24051525148482,4.259761063299533 L 148.87471043139521,5.982858261670177 L 142.91571556475245,11.056356086576113 L 142.19777257335204,8.143529648029007 A 237.24376288500488 237.24376288500488 0 0 1 104.5575191310581,14.264347384723067"/><text text-anchor="middle" pointer-events="none" font-size="8px" fill="#000000" x="83.03799597202833" y="17.5253210941988" transform="rotate(180 83.03799597202833 14.525321094198802)" font-family="sans-serif">twowheeler</text></g><g class="relationship" transform="translate(-218.93101263940108 74.35343192781485) rotate(389.89294997579265)"><path class="outline" fill="#A5ABB6" stroke="none" d="M 25 0.5 L 70.7128328374818 0.5 L 70.7128328374818 -0.5 L 25 -0.5 Z M 88.7128328374818 0.5 L 134.4256656749636 0.5 L 134.4256656749636 3.5 L 141.4256656749636 0 L 134.4256656749636 -3.5 L 134.4256656749636 -0.5 L 88.7128328374818 -0.5 Z"/><text text-anchor="middle" pointer-events="none" font-size="8px" fill="#000000" x="79.7128328374818" y="3" font-family="sans-serif">trek</text></g><g class="relationship" transform="translate(-74.64693716921059 157.29683287730046) rotate(328.31712798783826)"><path class="outline" fill="#A5ABB6" stroke="none" d="M 25 0.5 L 70.63359502614718 0.5 L 70.63359502614718 -0.5 L 25 -0.5 Z M 88.63359502614718 0.5 L 134.26719005229435 0.5 L 134.26719005229435 3.5 L 141.26719005229435 0 L 134.26719005229435 -3.5 L 134.26719005229435 -0.5 L 88.63359502614718 -0.5 Z"/><text text-anchor="middle" pointer-events="none" font-size="8px" fill="#000000" x="79.63359502614718" y="3" font-family="sans-serif">trek</text></g></g><g class="layer nodes"><g class="node" aria-label="graph-node172" style="touch-action: none;" transform="translate(-46.56527319743249,-51.83835912553543)"><circle class="outline" cx="0" cy="0" r="25" fill="#F16667" stroke="#eb2728" stroke-width="2px"/><text class="caption" text-anchor="middle" pointer-events="none" x="0" y="5" font-size="10px" fill="#FFFFFF" font-family="sans-serif"> Darjeeli…</text></g><g class="node" aria-label="graph-node174" style="touch-action: none;" transform="translate(66.84114691734008,69.97043051579845)"><circle class="outline" cx="0" cy="0" r="25" fill="#57C7E3" stroke="#23b3d7" stroke-width="2px"/><text class="caption" text-anchor="middle" pointer-events="none" x="0" y="5" font-size="10px" fill="#2A2C34" font-family="sans-serif"> Sandak…</text></g><g class="node" aria-label="graph-node177" style="touch-action: none;" transform="translate(97.54496044825963,-30.965708161157462)"><circle class="outline" cx="0" cy="0" r="25" fill="#D9C8AE" stroke="#c0a378" stroke-width="2px"/><text class="caption" text-anchor="middle" pointer-events="none" x="0" y="5" font-size="10px" fill="#2A2C34" font-family="sans-serif"> Tumbling</text></g><g class="node" aria-label="graph-node178" style="touch-action: none;" transform="translate(253.03693557857315,-26.553929783993688)"><circle class="outline" cx="0" cy="0" r="25" fill="#D9C8AE" stroke="#c0a378" stroke-width="2px"/><text class="caption" text-anchor="middle" pointer-events="none" x="0" y="5" font-size="10px" fill="#2A2C34" font-family="sans-serif"> Gairibus</text></g><g class="node" aria-label="graph-node173" style="touch-action: none;" transform="translate(143.0887094370012,-119.14137296184899)"><circle class="outline" cx="0" cy="0" r="25" fill="#D9C8AE" stroke="#c0a378" stroke-width="2px"/><text class="caption" text-anchor="middle" pointer-events="none" x="0" y="5" font-size="10px" fill="#2A2C34" font-family="sans-serif"> BhikeBh…</text></g><g class="node" aria-label="graph-node171" style="touch-action: none;" transform="translate(-2.1550820134336766,-176.6715197256019)"><circle class="outline" cx="0" cy="0" r="25" fill="#F16667" stroke="#eb2728" stroke-width="2px"/><text class="caption" text-anchor="middle" pointer-events="none" x="0" y="5" font-size="10px" fill="#FFFFFF" font-family="sans-serif"> Rimbik</text></g><g class="node" aria-label="graph-node175" style="touch-action: none;" transform="translate(-159.91485698082877,-88.42683323741517)"><circle class="outline" cx="0" cy="0" r="25" fill="#D9C8AE" stroke="#c0a378" stroke-width="2px"/><text class="caption" text-anchor="middle" pointer-events="none" x="0" y="5" font-size="10px" fill="#2A2C34" font-family="sans-serif"> Sirikhola</text></g><g class="node" aria-label="graph-node176" style="touch-action: none;" transform="translate(-87.16189693414785,51.711080494734496)"><circle class="outline" cx="0" cy="0" r="25" fill="#D9C8AE" stroke="#c0a378" stroke-width="2px"/><text class="caption" text-anchor="middle" pointer-events="none" x="0" y="5" font-size="10px" fill="#2A2C34" font-family="sans-serif"> Gurdum</text></g><g class="node" aria-label="graph-node179" style="touch-action: none;" transform="translate(-218.93101263940108,74.35343192781485)"><circle class="outline" cx="0" cy="0" r="25" fill="#D9C8AE" stroke="#c0a378" stroke-width="2px"/><text class="caption" text-anchor="middle" pointer-events="none" x="0" y="5" font-size="10px" fill="#2A2C34" font-family="sans-serif"> Rammam</text></g><g class="node" aria-label="graph-node0" style="touch-action: none;" transform="translate(-74.64693716921059,157.29683287730046)"><circle class="outline" cx="0" cy="0" r="25" fill="#57C7E3" stroke="#23b3d7" stroke-width="2px"/><text class="caption" text-anchor="middle" pointer-events="none" x="0" y="5" font-size="10px" fill="#2A2C34" font-family="sans-serif"> Sabargr…</text></g></g></svg>